<?xml version="1.0" encoding="utf-8"?>
<!-- Generator: Adobe Illustrator 25.2.3, SVG Export Plug-In . SVG Version: 6.00 Build 0)  -->
<svg version="1.1" id="Layer_1" xmlns="http://www.w3.org/2000/svg" xmlns:xlink="http://www.w3.org/1999/xlink" x="0px" y="0px"
	 viewBox="0 0 246 322" style="enable-background:new 0 0 246 322;" xml:space="preserve">
<style type="text/css">
	.st0{fill:#FFFFFF;}
	.st1{fill:none;}
	.st2{fill:#5949A7;}
</style>
<g id="Tile_2" transform="translate(1.718 -47.676)">
	<rect id="area" x="-1.7" y="47.7" class="st0" width="246" height="322"/>
	<g id="CIRCLE" transform="translate(65.781 62.444)">
		<g id="Path_306">
			<path class="st1" d="M56,111c-7.4,0-14.6-1.5-21.4-4.3c-3.3-1.4-6.4-3.1-9.3-5.1c-2.9-2-5.7-4.2-8.1-6.7
				c-2.5-2.5-4.7-5.2-6.7-8.1c-2-2.9-3.7-6.1-5.1-9.3C2.5,70.6,1,63.4,1,56s1.5-14.6,4.3-21.4c1.4-3.3,3.1-6.4,5.1-9.3
				c2-2.9,4.2-5.7,6.7-8.1c2.5-2.5,5.2-4.7,8.1-6.7c2.9-2,6.1-3.7,9.3-5.1C41.4,2.5,48.6,1,56,1s14.6,1.5,21.4,4.3
				c3.3,1.4,6.4,3.1,9.3,5.1c2.9,2,5.7,4.2,8.1,6.7c2.5,2.5,4.7,5.2,6.7,8.1c2,2.9,3.7,6.1,5.1,9.3c2.9,6.8,4.3,14,4.3,21.4
				s-1.5,14.6-4.3,21.4c-1.4,3.3-3.1,6.4-5.1,9.3c-2,2.9-4.2,5.7-6.7,8.1c-2.5,2.5-5.2,4.7-8.1,6.7c-2.9,2-6.1,3.7-9.3,5.1
				C70.6,109.5,63.4,111,56,111z"/>
			<path class="st2" d="M56,2c-7.3,0-14.4,1.4-21,4.2c-3.2,1.4-6.3,3-9.2,5c-2.9,1.9-5.5,4.2-8,6.6c-2.4,2.4-4.7,5.1-6.6,8
				c-2,2.9-3.6,6-5,9.2C3.4,41.6,2,48.7,2,56s1.4,14.4,4.2,21c1.4,3.2,3,6.3,5,9.2c1.9,2.9,4.2,5.5,6.6,8c2.4,2.4,5.1,4.7,8,6.6
				c2.9,2,6,3.6,9.2,5c6.7,2.8,13.7,4.2,21,4.2s14.4-1.4,21-4.2c3.2-1.4,6.3-3,9.2-5c2.9-1.9,5.5-4.2,8-6.6c2.4-2.4,4.7-5.1,6.6-8
				c2-2.9,3.6-6,5-9.2c2.8-6.7,4.2-13.7,4.2-21s-1.4-14.4-4.2-21c-1.4-3.2-3-6.3-5-9.2c-1.9-2.9-4.2-5.5-6.6-8
				c-2.4-2.4-5.1-4.7-8-6.6c-2.9-2-6-3.6-9.2-5C70.4,3.4,63.3,2,56,2 M56,0c30.9,0,56,25.1,56,56s-25.1,56-56,56S0,86.9,0,56
				S25.1,0,56,0z"/>
		</g>
		<path id="Path_19419" class="st2" d="M24.6,58.8h2.7v-2.7c2.9-0.4,3.5-1.8,3.5-4.5c0-2.8-0.1-3.7-3.9-4.6
			c-2.2-0.6-2.3-0.6-2.3-1.9c0-1.2,0.2-1.5,1.7-1.5c1.3,0,2.6,0.1,3.9,0.4l0.4-2.9c-0.9-0.2-1.7-0.3-2.6-0.4v-2.7h-2.7v2.7
			c-3,0.3-3.9,1.6-3.9,4.3c0,3,0.5,4,3.9,4.7c2.1,0.4,2.2,0.7,2.2,1.9c0,1.3-0.3,1.7-1.9,1.7c-1.3,0-2.5-0.2-3.7-0.6l-0.6,2.7
			c1.1,0.4,2.2,0.7,3.4,0.7L24.6,58.8z M44.6,69V43.2h-5.2l-7.6,4.4l2.5,4.8l4.5-2.4V69H44.6z M57.8,69.4c6.9,0,8.5-3.7,8.5-7.7V60
			c0-4.8-2.3-6.7-6.8-6.7c-1.5,0-3,0.2-4.4,0.6v-2c0-3.3,2-4.3,7.3-4.3c0.9,0,1.8,0.1,2.7,0.2l0.4-4.7c-1.3-0.2-2.6-0.3-3.9-0.3
			c-7.4,0-12.3,1.9-12.3,9.2v9.8C49.4,65.9,50.9,69.4,57.8,69.4z M57.8,64.5c-2.1,0-2.7-0.6-2.7-2.5v-3c1.1-0.5,2.3-0.7,3.4-0.7
			c1,0,2,0.4,2,2V62C60.5,63.7,59.9,64.5,57.8,64.5z M89.8,62.7v-2.6c0-2.4-1.6-4.4-3.9-4.9c1.8-0.6,3-2.3,3-4.2v-2.7
			c0-3.6-2-5.8-7.6-5.8H70.7V69H82C87.4,69,89.8,66.4,89.8,62.7z M82.8,51.4c0,1.1-0.8,1.9-2.4,1.9h-3.7v-6.1h3.7
			c1.7,0,2.4,0.7,2.4,1.9V51.4z M83.8,61.9c0,1.9-1.5,2.3-3.4,2.3h-3.7V58h4.6c1.6,0,2.5,0.8,2.5,2.2V61.9z"/>
	</g>
	<path id="Path_19417" d="M54.7,208.3c1.5,0.1,3-0.1,4.4-0.8c1.4-0.8,2.2-2.3,2.1-3.9c0.1-1.9-1-3.7-2.8-4.3
		c-1.1-0.4-2.3-0.5-3.5-0.5h-5.7v15h3.3v-5.4H54.7z M55.1,201.6c0.6,0,1.2,0,1.8,0.2c0.7,0.3,1.1,0.9,1,1.6c0.1,0.7-0.3,1.3-1,1.6
		c-0.6,0.2-1.2,0.3-1.8,0.3h-2.6v-3.7H55.1z M62.2,208.5c0,3.5,2.2,5.5,5.5,5.5c3.3,0,5.6-1.9,5.6-5.5c0-3.5-2.3-5.5-5.6-5.5
		S62.2,204.9,62.2,208.5z M65.4,208.4c0-1.9,0.8-3.1,2.3-3.1s2.3,1.1,2.3,3.1c0,1.9-0.8,3.1-2.3,3.1
		C66.3,211.5,65.4,210.4,65.4,208.4L65.4,208.4z M75.4,203.2v10.5h3.2v-4.9c0-0.5,0-0.9,0.2-1.4c0.2-1,1.1-1.6,2.1-1.5
		c0.3,0,0.7,0,1,0.1V203c-0.1,0-0.2,0-0.4,0c-1.2-0.1-2.4,0.6-2.9,1.7v-1.4H75.4z M90.1,211.4c-0.3,0-0.5,0-0.8,0
		c-0.4,0.1-0.9-0.1-1.2-0.3c-0.2-0.2-0.3-0.5-0.3-1.1v-4.6h2.3v-2.2h-2.3V199l-3.2,0.6v3.6h-2v2.2h2v5.5c-0.1,0.7,0.1,1.5,0.4,2.2
		c0.6,0.7,1.9,0.9,3.1,0.9c0.6,0,1.3-0.1,1.9-0.2L90.1,211.4z M98.6,203.2h-2.4v-0.9c0-0.6,0.1-0.8,0.3-0.9c0.3-0.2,0.8-0.3,1.2-0.3
		c0.3,0,0.6,0,0.9,0v-2.4c-0.6-0.1-1.3-0.1-1.9-0.1c-1.1-0.1-2.2,0.2-3,1.1c-0.5,0.7-0.7,1.6-0.6,2.4v1.1h-1.7v2.2H93v8.3h3.2v-8.3
		h2.4V203.2z M99.5,208.5c0,3.5,2.2,5.5,5.5,5.5s5.6-1.9,5.6-5.5c0-3.5-2.3-5.5-5.6-5.5S99.5,204.9,99.5,208.5L99.5,208.5z
		 M102.8,208.4c0-1.9,0.8-3.1,2.3-3.1s2.3,1.1,2.3,3.1c0,1.9-0.8,3.1-2.3,3.1S102.8,210.4,102.8,208.4L102.8,208.4z M116,198.7h-3.2
		v15h3.2L116,198.7z M122,203.2h-3.2v10.5h3.2V203.2z M122,198.7h-3.2v3.1h3.2V198.7z M124,208.5c0,3.5,2.2,5.5,5.5,5.5
		c3.3,0,5.6-1.9,5.6-5.5c0-3.5-2.3-5.5-5.6-5.5C126.3,202.9,124,204.9,124,208.5z M127.3,208.4c0-1.9,0.8-3.1,2.3-3.1
		s2.3,1.1,2.3,3.1c0,1.9-0.8,3.1-2.3,3.1S127.3,210.4,127.3,208.4z M145.9,204.7c-1.2-1.2-2.9-1.8-4.6-1.7c-2.1,0-4.5,0.9-4.5,3.4
		c0,0.8,0.3,1.5,0.9,2c0.8,0.6,1.7,1,2.6,1.1l1.7,0.3c0.7,0.1,1.3,0.2,1.3,0.8c0,0.6-0.6,0.9-1.6,0.9c-1.3,0-2.5-0.6-3.3-1.6l-2,1.6
		c1.3,1.6,3.3,2.4,5.4,2.4c2.5,0,4.6-1.2,4.6-3.6c0-2-1.5-2.7-3.2-3l-1.6-0.4c-1.1-0.2-1.6-0.4-1.6-0.9c0-0.5,0.6-0.8,1.4-0.8
		c1.1,0,2.1,0.4,2.8,1.1L145.9,204.7z M161.1,213.7h4l2.8-10.5h-3.2l-0.9,4.4c-0.3,1.5-0.4,2.2-0.6,3.3h0c-0.2-1.1-0.4-1.8-0.7-3.2
		l-1.1-4.5h-3.4l-1.1,4.5c-0.3,1.3-0.5,2.2-0.7,3.3h0c-0.2-1.1-0.4-2.1-0.6-3.2l-0.8-4.5h-3.3l2.6,10.5h4l0.9-4
		c0.3-1.1,0.5-2.6,0.7-3.6h0c0.2,1.1,0.5,2.5,0.7,3.6L161.1,213.7z M172.7,203.2h-3.2v10.5h3.2V203.2z M172.7,198.7h-3.2v3.1h3.2
		V198.7z M181.8,211.4c-0.3,0-0.5,0-0.8,0c-0.4,0.1-0.9-0.1-1.2-0.3c-0.2-0.2-0.3-0.5-0.3-1.1v-4.6h2.3v-2.2h-2.3V199l-3.2,0.6v3.6
		h-2v2.2h2v5.5c-0.1,0.7,0.1,1.5,0.4,2.2c0.6,0.7,1.9,0.9,3.1,0.9c0.6,0,1.3-0.1,1.9-0.2L181.8,211.4z M193.8,207.7
		c0-2.3-0.3-3-0.9-3.8c-0.7-0.7-1.7-1.1-2.8-1c-1.2-0.1-2.4,0.5-3.1,1.5v-5.7h-3.2v15h3.2v-5.5c0-1.4,0.6-2.5,1.9-2.5
		c1.6,0,1.6,1.1,1.6,2.7v5.3h3.2L193.8,207.7z M86.6,234.3c1.5,0.1,3-0.1,4.4-0.8c1.4-0.8,2.2-2.3,2.1-3.9c0.1-1.9-1-3.7-2.8-4.3
		c-1.1-0.4-2.3-0.5-3.5-0.5H81v15h3.3v-5.4H86.6z M87,227.6c0.6,0,1.2,0,1.8,0.2c0.7,0.3,1.1,0.9,1,1.7c0.1,0.7-0.3,1.3-1,1.6
		c-0.6,0.2-1.2,0.3-1.8,0.3h-2.6v-3.7H87z M94.8,235.1c0,2.3,0.3,3,0.9,3.8c0.7,0.7,1.7,1.1,2.7,1c1.2,0.1,2.4-0.5,3.1-1.6v1.3h3.2
		v-10.5h-3.2v5.5c0,1.4-0.6,2.5-1.9,2.5c-1.6,0-1.6-1.1-1.6-2.7v-5.3h-3.2V235.1z M107.3,229.2v10.5h3.2v-4.9c0-0.5,0-0.9,0.2-1.4
		c0.2-1,1.1-1.6,2.1-1.5c0.3,0,0.7,0,1,0.1V229c-0.1,0-0.2,0-0.4,0c-1.2-0.1-2.4,0.6-2.9,1.7v-1.4H107.3z M121.9,239.9
		c2.9,0,4.9-2.3,4.9-5.5c0-3.3-1.9-5.5-4.9-5.5c-1.1,0-2.2,0.4-3.1,1.2v-1h-3.2v14.4h3.2v-4.9C119.6,239.6,120.8,240,121.9,239.9z
		 M118.8,234.4c0-1.8,1-3.1,2.4-3.1c1.6,0,2.4,1.2,2.4,3.1c0,1.9-0.9,3.1-2.4,3.1C119.7,237.5,118.8,236.3,118.8,234.4z
		 M128.3,234.5c0,3.5,2.2,5.5,5.5,5.5c3.3,0,5.6-1.9,5.6-5.5c0-3.5-2.3-5.5-5.6-5.5S128.3,230.9,128.3,234.5z M131.5,234.4
		c0-1.9,0.8-3.1,2.3-3.1s2.3,1.1,2.3,3.1c0,1.9-0.8,3.1-2.3,3.1S131.5,236.4,131.5,234.4L131.5,234.4z M150.1,230.7
		c-1.2-1.2-2.9-1.8-4.6-1.7c-2.1,0-4.5,0.9-4.5,3.4c0,0.8,0.3,1.5,0.9,2c0.8,0.6,1.7,1,2.6,1.1l1.7,0.3c0.7,0.1,1.3,0.2,1.3,0.8
		c0,0.6-0.6,0.9-1.6,0.9c-1.3,0-2.5-0.6-3.3-1.6l-2,1.6c1.3,1.6,3.3,2.4,5.4,2.4c2.5,0,4.6-1.2,4.6-3.6c0-2-1.5-2.7-3.2-3l-1.6-0.4
		c-1.1-0.2-1.6-0.4-1.6-0.9c0-0.5,0.6-0.8,1.4-0.8c1.1,0,2.1,0.4,2.8,1.1L150.1,230.7z M160.1,236c-0.5,0.9-1.5,1.5-2.6,1.5
		c-1.3,0.1-2.4-0.8-2.5-2.1c0,0,0,0,0,0h7.5c0-0.2,0-0.4,0-0.7c0-3.2-1.8-5.7-5.2-5.7c-2.8-0.1-5.3,2.1-5.4,4.9c0,0.2,0,0.3,0,0.5
		c-0.2,2.9,1.9,5.3,4.8,5.5c0.2,0,0.4,0,0.6,0c2,0.1,3.9-0.9,5-2.5L160.1,236z M157.2,231.2c1.1-0.1,2.1,0.8,2.1,1.9
		c0,0.1,0,0.1,0,0.2H155C155,232,156,231.1,157.2,231.2L157.2,231.2z"/>
</g>
</svg>
