<svg xmlns="http://www.w3.org/2000/svg" width="246" height="322" viewBox="0 0 246 322">
  <g id="Tile_1" data-name="Tile 1" transform="translate(6 -47.676)">
    <rect id="area" width="246" height="322" transform="translate(-6 47.676)" fill="#fff"/>
    <g id="CIRCLE" transform="translate(65.781 62.444)">
      <g id="Path_306" data-name="Path 306" fill="rgba(28,216,192,0)">
        <path d="M 56.00000381469727 110.9999694824219 C 48.57461929321289 110.9999694824219 41.37186431884766 109.5459289550781 34.59183502197266 106.67822265625 C 31.33306503295898 105.2998809814453 28.18991088867188 103.5938186645508 25.24968147277832 101.6074371337891 C 22.33712768554688 99.63973999023438 19.5982494354248 97.37995910644531 17.10912704467773 94.89085388183594 C 14.62001895904541 92.40174102783203 12.36023426055908 89.66286468505859 10.39254188537598 86.75031280517578 C 8.406157493591309 83.81006622314453 6.700111389160156 80.66690826416016 5.321773052215576 77.40815734863281 C 2.454050064086914 70.62812805175781 1.000003814697266 63.42537307739258 1.000003814697266 55.9999885559082 C 1.000003814697266 48.57460403442383 2.454050064086914 41.37184906005859 5.321773052215576 34.59181976318359 C 6.700111389160156 31.33306503295898 8.406157493591309 28.18991088867188 10.39254188537598 25.24966621398926 C 12.36023426055908 22.33711242675781 14.62001895904541 19.59823417663574 17.10912704467773 17.10912704467773 C 19.5982494354248 14.62001895904541 22.33712768554688 12.36023426055908 25.24968147277832 10.39254283905029 C 28.18991088867188 8.406157493591309 31.33306503295898 6.700096130371094 34.59183502197266 5.321757793426514 C 41.37186431884766 2.454050064086914 48.57461929321289 1.000003933906555 56.00000381469727 1.000003933906555 C 63.42538833618164 1.000003933906555 70.62814331054688 2.454050064086914 77.40817260742188 5.321757793426514 C 80.66693878173828 6.700096130371094 83.81009674072266 8.406157493591309 86.75032806396484 10.39254283905029 C 89.66287994384766 12.36023426055908 92.40175628662109 14.62001895904541 94.89088439941406 17.10912704467773 C 97.37998962402344 19.59823417663574 99.6397705078125 22.33711242675781 101.6074676513672 25.24966621398926 C 103.5938491821289 28.18991088867188 105.2998962402344 31.33306503295898 106.6782379150391 34.59181976318359 C 109.5459594726562 41.37184906005859 111 48.57460403442383 111 55.9999885559082 C 111 63.42537307739258 109.5459594726562 70.62812805175781 106.6782379150391 77.40815734863281 C 105.2998962402344 80.66690826416016 103.5938491821289 83.81006622314453 101.6074676513672 86.75031280517578 C 99.6397705078125 89.66286468505859 97.37998962402344 92.40174102783203 94.89088439941406 94.89085388183594 C 92.40175628662109 97.37995910644531 89.66287994384766 99.63973999023438 86.75032806396484 101.6074371337891 C 83.81009674072266 103.5938186645508 80.66693878173828 105.2998809814453 77.40817260742188 106.67822265625 C 70.62814331054688 109.5459289550781 63.42538833618164 110.9999694824219 56.00000381469727 110.9999694824219 Z" stroke="none"/>
        <path d="M 56.00000381469727 2.000007629394531 C 48.70917129516602 2.000007629394531 41.63748931884766 3.427474975585938 34.98138427734375 6.242774963378906 C 31.78208923339844 7.595954895019531 28.69622039794922 9.27093505859375 25.80948638916016 11.22116851806641 C 22.94965362548828 13.15322113037109 20.26033782958984 15.37212371826172 17.81623840332031 17.81623840332031 C 15.37212371826172 20.26033782958984 13.15322113037109 22.94965362548828 11.22116851806641 25.80948638916016 C 9.27093505859375 28.69620513916016 7.595954895019531 31.78208923339844 6.242767333984375 34.98136901855469 C 3.427467346191406 41.63747406005859 2.000007629394531 48.70915603637695 2.000007629394531 55.9999885559082 C 2.000007629394531 63.29082107543945 3.427467346191406 70.36250305175781 6.242767333984375 77.01860046386719 C 7.595954895019531 80.21788787841797 9.27093505859375 83.30377197265625 11.22116851806641 86.19049072265625 C 13.15322113037109 89.05032348632812 15.37212371826172 91.73963928222656 17.81623840332031 94.18373870849609 C 20.26033782958984 96.62785339355469 22.94965362548828 98.84675598144531 25.80948638916016 100.77880859375 C 28.69622039794922 102.7290344238281 31.78208923339844 104.4040222167969 34.98138427734375 105.7572021484375 C 41.63748931884766 108.5725021362305 48.70917129516602 109.9999694824219 56.00000381469727 109.9999694824219 C 63.29083633422852 109.9999694824219 70.36251831054688 108.5725021362305 77.01861572265625 105.7572021484375 C 80.21791839599609 104.4040222167969 83.30378723144531 102.7290344238281 86.19052124023438 100.77880859375 C 89.05035400390625 98.84675598144531 91.73966979980469 96.62785339355469 94.18376922607422 94.18373870849609 C 96.62788391113281 91.73963928222656 98.84678649902344 89.05032348632812 100.7788391113281 86.19049072265625 C 102.7290725708008 83.30377197265625 104.404052734375 80.21788787841797 105.7572402954102 77.01860046386719 C 108.5725402832031 70.36250305175781 110 63.29082107543945 110 55.9999885559082 C 110 48.70915603637695 108.5725402832031 41.63747406005859 105.7572402954102 34.98136901855469 C 104.404052734375 31.78208923339844 102.7290725708008 28.69620513916016 100.7788391113281 25.80948638916016 C 98.84678649902344 22.94965362548828 96.62788391113281 20.26033782958984 94.18376922607422 17.81623840332031 C 91.73966979980469 15.37212371826172 89.05035400390625 13.15322113037109 86.19052124023438 11.22116851806641 C 83.30378723144531 9.27093505859375 80.21791839599609 7.595954895019531 77.01861572265625 6.242774963378906 C 70.36251831054688 3.427474975585938 63.29083633422852 2.000007629394531 56.00000381469727 2.000007629394531 M 56.00000381469727 7.62939453125e-06 C 86.92795562744141 7.62939453125e-06 112 25.07205200195312 112 55.9999885559082 C 112 86.92791748046875 86.92795562744141 111.9999694824219 56.00000381469727 111.9999694824219 C 25.07205200195312 111.9999694824219 7.62939453125e-06 86.92791748046875 7.62939453125e-06 55.9999885559082 C 7.62939453125e-06 25.07205200195312 25.07205200195312 7.62939453125e-06 56.00000381469727 7.62939453125e-06 Z" stroke="none" fill="#1e9bd7"/>
      </g>
      <path id="Path_19421" data-name="Path 19421" d="M-40.44-10.177h2.683V-12.86c2.917-.373,3.523-1.843,3.523-4.5,0-2.777-.093-3.686-3.873-4.643-2.193-.56-2.287-.583-2.287-1.89,0-1.213.233-1.47,1.68-1.47a18.609,18.609,0,0,1,3.85.4l.35-2.87a16.326,16.326,0,0,0-2.637-.4v-2.707h-2.683v2.683c-2.986.257-3.92,1.633-3.92,4.293,0,3.033.537,4.013,3.943,4.69,2.1.42,2.217.653,2.217,1.937,0,1.307-.327,1.68-1.937,1.68a13.164,13.164,0,0,1-3.71-.63l-.607,2.73a12.381,12.381,0,0,0,3.406.747ZM-20.824-8.12v1.08c0,1.68-.56,2.44-3.28,2.44a30.608,30.608,0,0,1-6.24-.64l-.84,4.64a27.937,27.937,0,0,0,7.12,1c7.28,0,8.96-2.56,9-7.12V-9.56c0-3.16-1.2-5.4-5.8-5.68-1.52-.08-2.24-.12-3.6-.16v-5.44h8.84v-5h-14.6v15.12c2.16.04,3.48.08,6.36.2C-21.3-10.4-20.824-9.92-20.824-8.12ZM-.7,0V-25.84H-5.9l-7.56,4.36,2.48,4.76,4.52-2.44V0Zm15.16-8.12v1.08c0,1.68-.56,2.44-3.28,2.44a30.608,30.608,0,0,1-6.24-.64L4.1-.6a27.937,27.937,0,0,0,7.12,1c7.28,0,8.96-2.56,9-7.12V-9.56c0-3.16-1.2-5.4-5.8-5.68-1.52-.08-2.24-.12-3.6-.16v-5.44h8.84v-5H5.056v15.12c2.16.04,3.48.08,6.36.2C13.976-10.4,14.456-9.92,14.456-8.12ZM43.7-6.36v-2.6a5.034,5.034,0,0,0-3.92-4.92,4.234,4.234,0,0,0,2.96-4.2V-20.8c0-3.6-2.04-5.84-7.6-5.84H24.616V0h11.36C41.3,0,43.7-2.6,43.7-6.36ZM36.736-17.6c0,1.08-.8,1.88-2.4,1.88h-3.72V-21.8h3.72c1.68,0,2.4.72,2.4,1.88ZM37.7-7.16c0,1.92-1.48,2.32-3.36,2.32h-3.72v-6.2h4.56c1.6,0,2.52.76,2.52,2.24Z" transform="translate(56.25 69.01)" fill="#1e9bd7"/>
    </g>
    <path id="Path_19416" data-name="Path 19416" d="M11.746,15.03H17l.88,2.97h3.564L16.454,3.04H12.428L7.39,18h3.5Zm4.4-2.728H12.56l1.276-4.2c.286-.968.55-1.958.55-1.958h.022s.242.99.506,1.936ZM31.5,9a6.512,6.512,0,0,0-4.576-1.738c-2.068,0-4.466.9-4.466,3.388a2.563,2.563,0,0,0,.9,2.046,5.507,5.507,0,0,0,2.6,1.1l1.65.33c.7.132,1.342.242,1.342.836,0,.572-.55.924-1.628.924a4.2,4.2,0,0,1-3.344-1.606L21.954,15.91a6.733,6.733,0,0,0,5.368,2.354c2.486,0,4.62-1.166,4.62-3.608,0-2-1.54-2.684-3.234-3.036l-1.65-.352c-1.078-.22-1.562-.374-1.562-.924,0-.528.638-.77,1.364-.77A4.293,4.293,0,0,1,29.7,10.718ZM42.48,9A6.512,6.512,0,0,0,37.9,7.264c-2.068,0-4.466.9-4.466,3.388a2.563,2.563,0,0,0,.9,2.046,5.507,5.507,0,0,0,2.6,1.1l1.65.33c.7.132,1.342.242,1.342.836,0,.572-.55.924-1.628.924a4.2,4.2,0,0,1-3.344-1.606L32.932,15.91A6.733,6.733,0,0,0,38.3,18.264c2.486,0,4.62-1.166,4.62-3.608,0-2-1.54-2.684-3.234-3.036l-1.65-.352c-1.078-.22-1.562-.374-1.562-.924,0-.528.638-.77,1.364-.77a4.293,4.293,0,0,1,2.838,1.144Zm9.988,5.28a2.938,2.938,0,0,1-2.6,1.452,2.332,2.332,0,0,1-2.53-2.134H54.8a6.4,6.4,0,0,0,.022-.66c0-3.19-1.76-5.676-5.214-5.676A5.163,5.163,0,0,0,44.24,12.72a5.178,5.178,0,0,0,5.434,5.544,5.909,5.909,0,0,0,5.016-2.486Zm-2.882-4.8a2.011,2.011,0,0,1,2.134,2.046H47.342A2.191,2.191,0,0,1,49.586,9.486ZM63.2,15.712a6.288,6.288,0,0,1-.814.044,1.6,1.6,0,0,1-1.21-.33c-.2-.2-.264-.484-.264-1.078V9.706H63.2V7.528H60.916v-4.2L57.7,3.964V7.528H55.68V9.706H57.7v5.456a3.294,3.294,0,0,0,.44,2.156c.55.726,1.87.9,3.124.9a10.578,10.578,0,0,0,1.936-.176ZM73.852,9a6.512,6.512,0,0,0-4.576-1.738c-2.068,0-4.466.9-4.466,3.388a2.563,2.563,0,0,0,.9,2.046,5.507,5.507,0,0,0,2.6,1.1l1.65.33c.7.132,1.342.242,1.342.836,0,.572-.55.924-1.628.924a4.2,4.2,0,0,1-3.344-1.606L64.3,15.91a6.733,6.733,0,0,0,5.368,2.354c2.486,0,4.62-1.166,4.62-3.608,0-2-1.54-2.684-3.234-3.036l-1.65-.352c-1.078-.22-1.562-.374-1.562-.924,0-.528.638-.77,1.364-.77a4.293,4.293,0,0,1,2.838,1.144Zm16.566,3.476c0-1.43.506-2.486,1.826-2.486,1.584,0,1.584,1.122,1.584,2.728V18H97.04V12.06c0-2.31-.264-3.036-.924-3.784a3.374,3.374,0,0,0-2.684-1.012,3.847,3.847,0,0,0-3.366,1.892A3.2,3.2,0,0,0,86.81,7.264a3.487,3.487,0,0,0-3.058,1.562v-1.3H80.584V18H83.8V12.478c0-1.43.506-2.486,1.8-2.486,1.584,0,1.606,1.122,1.606,2.728V18h3.212Zm18.128-1.958c0-2.376-1.694-3.212-4.378-3.212-3.014,0-4.884,1.276-4.84,3.7l2.97.022c0-1.056.616-1.518,1.738-1.518,1.1,0,1.54.44,1.54,1.232v.176c0,.33-.088.4-.66.484l-2.024.33a6.972,6.972,0,0,0-2.574.792A2.593,2.593,0,0,0,99,14.92c0,2.134,1.474,3.344,3.784,3.344a3.885,3.885,0,0,0,2.948-.968h.022c.22.77,1.078.946,2,.946a7.723,7.723,0,0,0,1.5-.132V16.262H109.1c-.462,0-.55-.22-.55-.88Zm-2.992,4.07c0,1.1-.748,1.584-1.8,1.584-.924,0-1.562-.374-1.562-1.232a.938.938,0,0,1,.44-.858,3,3,0,0,1,1.034-.352l.726-.154a7.226,7.226,0,0,0,1.166-.33Zm15.752-2.53c0-2.31-.264-3.036-.924-3.784a3.524,3.524,0,0,0-2.75-1.012,3.594,3.594,0,0,0-3.146,1.562v-1.3h-3.168V18h3.212V12.478c0-1.43.572-2.486,1.914-2.486,1.584,0,1.65,1.122,1.65,2.728V18h3.212Zm11.506-1.54c0-2.376-1.694-3.212-4.378-3.212-3.014,0-4.884,1.276-4.84,3.7l2.97.022c0-1.056.616-1.518,1.738-1.518,1.1,0,1.54.44,1.54,1.232v.176c0,.33-.088.4-.66.484l-2.024.33a6.972,6.972,0,0,0-2.574.792,2.593,2.593,0,0,0-1.32,2.4c0,2.134,1.474,3.344,3.784,3.344A3.885,3.885,0,0,0,130,17.3h.022c.22.77,1.078.946,2,.946a7.723,7.723,0,0,0,1.5-.132V16.262h-.154c-.462,0-.55-.22-.55-.88Zm-2.992,4.07c0,1.1-.748,1.584-1.8,1.584-.924,0-1.562-.374-1.562-1.232a.938.938,0,0,1,.44-.858,3,3,0,0,1,1.034-.352l.726-.154a7.225,7.225,0,0,0,1.166-.33Zm5.456,3.806c.176,2.134,1.452,3.828,5.214,3.828,4.158,0,5.654-1.54,5.654-5.3V7.528h-3.212v.9a4.146,4.146,0,0,0-3.08-1.166c-2.838,0-4.84,2.354-4.84,5.28,0,3.146,1.892,5.324,4.8,5.324a4.037,4.037,0,0,0,3.1-1.144v.748c0,1.628-.638,2.354-2.354,2.354-1.606,0-2.112-.726-2.288-1.65ZM143,12.588c0,1.738-1.012,2.9-2.4,2.9-1.5,0-2.354-1.122-2.354-2.9,0-1.738.924-2.882,2.354-2.882C141.964,9.706,143,10.85,143,12.588Zm13.42,1.694a2.939,2.939,0,0,1-2.6,1.452,2.332,2.332,0,0,1-2.53-2.134h7.458a6.4,6.4,0,0,0,.022-.66c0-3.19-1.76-5.676-5.214-5.676a5.163,5.163,0,0,0-5.368,5.456,5.178,5.178,0,0,0,5.434,5.544,5.909,5.909,0,0,0,5.016-2.486Zm-2.882-4.8a2.011,2.011,0,0,1,2.134,2.046h-4.378A2.191,2.191,0,0,1,153.536,9.486Zm11.55-2.222c-2.926,0-4.884,2.31-4.884,5.5,0,3.3,1.892,5.5,4.862,5.5a4.235,4.235,0,0,0,3.08-1.232V18h3.212V3.04h-3.212V8.474A3.861,3.861,0,0,0,165.086,7.264Zm3.146,5.5c0,1.826-.968,3.08-2.4,3.08-1.562,0-2.376-1.166-2.376-3.08,0-1.87.88-3.058,2.376-3.058C167.264,9.706,168.232,10.938,168.232,12.764Zm-128.1,26.7c0,2.31.264,3.036.924,3.784a3.424,3.424,0,0,0,2.706,1.012,3.54,3.54,0,0,0,3.1-1.562V44h3.168V33.528H46.825V39.05c0,1.43-.572,2.486-1.87,2.486-1.584,0-1.606-1.122-1.606-2.728v-5.28H40.137ZM61.323,35a6.512,6.512,0,0,0-4.576-1.738c-2.068,0-4.466.9-4.466,3.388a2.563,2.563,0,0,0,.9,2.046,5.507,5.507,0,0,0,2.6,1.1l1.65.33c.7.132,1.342.242,1.342.836,0,.572-.55.924-1.628.924A4.2,4.2,0,0,1,53.8,40.282L51.775,41.91a6.733,6.733,0,0,0,5.368,2.354c2.486,0,4.62-1.166,4.62-3.608,0-2-1.54-2.684-3.234-3.036l-1.65-.352c-1.078-.22-1.562-.374-1.562-.924,0-.528.638-.77,1.364-.77a4.293,4.293,0,0,1,2.838,1.144Zm5.566-1.474H63.655V44h3.234Zm0-4.488H63.655v3.146h3.234Zm12.628,9.02c0-2.31-.264-3.036-.924-3.784a3.524,3.524,0,0,0-2.75-1.012A3.594,3.594,0,0,0,72.7,34.826v-1.3H69.529V44h3.212V38.478c0-1.43.572-2.486,1.914-2.486,1.584,0,1.65,1.122,1.65,2.728V44h3.212ZM81.739,44.4c.176,2.134,1.452,3.828,5.214,3.828,4.158,0,5.654-1.54,5.654-5.3V33.528H89.395v.9a4.146,4.146,0,0,0-3.08-1.166c-2.838,0-4.84,2.354-4.84,5.28,0,3.146,1.892,5.324,4.8,5.324a4.037,4.037,0,0,0,3.1-1.144v.748c0,1.628-.638,2.354-2.354,2.354-1.606,0-2.112-.726-2.288-1.65Zm7.722-5.808c0,1.738-1.012,2.9-2.4,2.9-1.5,0-2.354-1.122-2.354-2.9,0-1.738.924-2.882,2.354-2.882C88.427,35.706,89.461,36.85,89.461,38.588Zm20.966-6.622V29.04H99.911V44h11.022V41.052h-7.722V37.818h6.512v-2.9h-6.512V31.966Zm13.992-.836a8.174,8.174,0,0,0-6.028-2.354c-3.278,0-5.764,1.87-5.764,4.554,0,2.926,2.068,3.916,4.8,4.444l1.936.374c1.364.242,2.244.528,2.244,1.562,0,1.1-1.012,1.782-2.75,1.782a5.631,5.631,0,0,1-4.532-2.332l-2.31,1.98a8.494,8.494,0,0,0,6.754,3.124c3.542,0,6.292-1.716,6.292-4.818,0-2.64-1.738-3.74-4.51-4.29l-2.42-.484c-1.364-.264-2.046-.66-2.046-1.628,0-.946.968-1.518,2.354-1.518a5.591,5.591,0,0,1,3.872,1.628Zm2.09,5.39c0,4.576,2.53,7.744,6.622,7.744a5.118,5.118,0,0,0,3.894-1.584V44h2.9V35.508h-7.106v2.926h4.246a3.147,3.147,0,0,1-3.344,3.168c-2.53,0-3.916-1.914-3.916-5.082,0-3.124,1.43-5.016,3.894-5.016a3.4,3.4,0,0,1,3.366,2.266l2.772-1.166a6.4,6.4,0,0,0-6.182-3.828C129.325,28.776,126.509,31.922,126.509,36.52ZM38.872,59.528H35.638V70h3.234Zm0-4.488H35.638v3.146h3.234ZM51.5,64.06c0-2.31-.264-3.036-.924-3.784a3.524,3.524,0,0,0-2.75-1.012,3.594,3.594,0,0,0-3.146,1.562v-1.3H41.512V70h3.212V64.478c0-1.43.572-2.486,1.914-2.486,1.584,0,1.65,1.122,1.65,2.728V70H51.5Zm8.888,3.652a6.287,6.287,0,0,1-.814.044,1.6,1.6,0,0,1-1.21-.33c-.2-.2-.264-.484-.264-1.078V61.706h2.288V59.528H58.1v-4.2l-3.212.638v3.564H52.864v2.178h2.024v5.456a3.294,3.294,0,0,0,.44,2.156c.55.726,1.87.9,3.124.9a10.578,10.578,0,0,0,1.936-.176Zm9.658-1.43a2.938,2.938,0,0,1-2.6,1.452A2.332,2.332,0,0,1,64.92,65.6h7.458a6.4,6.4,0,0,0,.022-.66c0-3.19-1.76-5.676-5.214-5.676a5.163,5.163,0,0,0-5.368,5.456,5.178,5.178,0,0,0,5.434,5.544,5.909,5.909,0,0,0,5.016-2.486Zm-2.882-4.8A2.011,2.011,0,0,1,69.3,63.532H64.92A2.191,2.191,0,0,1,67.164,61.486Zm6.93,8.91c.176,2.134,1.452,3.828,5.214,3.828,4.158,0,5.654-1.54,5.654-5.3V59.528H81.75v.9a4.146,4.146,0,0,0-3.08-1.166c-2.838,0-4.84,2.354-4.84,5.28,0,3.146,1.892,5.324,4.8,5.324a4.037,4.037,0,0,0,3.1-1.144v.748c0,1.628-.638,2.354-2.354,2.354-1.606,0-2.112-.726-2.288-1.65Zm7.722-5.808c0,1.738-1.012,2.9-2.4,2.9-1.5,0-2.354-1.122-2.354-2.9,0-1.738.924-2.882,2.354-2.882C80.782,61.706,81.816,62.85,81.816,64.588Zm5.764-5.06V70h3.212V65.138a5.408,5.408,0,0,1,.154-1.408,1.922,1.922,0,0,1,2.09-1.474,4.589,4.589,0,0,1,1.034.132v-3.08a2.134,2.134,0,0,0-.374-.022,3.19,3.19,0,0,0-2.948,1.672v-1.43Zm17.27,2.992c0-2.376-1.694-3.212-4.378-3.212-3.014,0-4.884,1.276-4.84,3.7l2.97.022c0-1.056.616-1.518,1.738-1.518,1.1,0,1.54.44,1.54,1.232v.176c0,.33-.088.4-.66.484l-2.024.33a6.972,6.972,0,0,0-2.574.792,2.593,2.593,0,0,0-1.32,2.4c0,2.134,1.474,3.344,3.784,3.344a3.885,3.885,0,0,0,2.948-.968h.022c.22.77,1.078.946,2,.946a7.723,7.723,0,0,0,1.5-.132V68.262H105.4c-.462,0-.55-.22-.55-.88Zm-2.992,4.07c0,1.1-.748,1.584-1.8,1.584-.924,0-1.562-.374-1.562-1.232a.938.938,0,0,1,.44-.858,3,3,0,0,1,1.034-.352l.726-.154a7.227,7.227,0,0,0,1.166-.33ZM114,67.712a6.287,6.287,0,0,1-.814.044,1.6,1.6,0,0,1-1.21-.33c-.2-.2-.264-.484-.264-1.078V61.706H114V59.528h-2.288v-4.2l-3.212.638v3.564h-2.024v2.178H108.5v5.456a3.294,3.294,0,0,0,.44,2.156c.55.726,1.87.9,3.124.9A10.577,10.577,0,0,0,114,70.044Zm5.236-8.184H116V70h3.234Zm0-4.488H116v3.146h3.234Zm2.068,9.768c0,3.542,2.244,5.456,5.544,5.456s5.566-1.914,5.566-5.456-2.266-5.544-5.566-5.544S121.306,61.266,121.306,64.808Zm3.256-.044c0-1.936.792-3.08,2.288-3.08s2.31,1.122,2.31,3.08c0,1.914-.836,3.058-2.31,3.058S124.562,66.7,124.562,64.764Zm19.91-.7c0-2.31-.264-3.036-.924-3.784a3.524,3.524,0,0,0-2.75-1.012,3.594,3.594,0,0,0-3.146,1.562v-1.3h-3.168V70H137.7V64.478c0-1.43.572-2.486,1.914-2.486,1.584,0,1.65,1.122,1.65,2.728V70h3.212Z" transform="translate(32 195.676)"/>
  </g>
</svg>
