<?xml version="1.0" encoding="utf-8"?>
<!-- Generator: Adobe Illustrator 25.1.0, SVG Export Plug-In . SVG Version: 6.00 Build 0)  -->
<svg version="1.1" id="Layer_1" xmlns="http://www.w3.org/2000/svg" xmlns:xlink="http://www.w3.org/1999/xlink" x="0px" y="0px"
	 viewBox="0 0 246 322" style="enable-background:new 0 0 246 322;" xml:space="preserve">
<style type="text/css">
	.st0{fill:#FFFFFF;}
	.st1{fill:none;stroke:#000000;stroke-miterlimit:10;}
	.st2{fill:#32DBC6;}
	.st3{enable-background:new    ;}
	.st4{fill:#1CD8C0;}
</style>
<g id="Tile_4" transform="translate(5.718 -47.676)">
	<rect id="area" x="-5.7" y="47.7" class="st0" width="246" height="322"/>
	<g id="CIRCLE" transform="translate(65.781 62.444)">
		<g id="Path_306">
			<path class="st1" d="M56,111c-7.4,0-14.6-1.5-21.4-4.3c-3.3-1.4-6.4-3.1-9.3-5.1s-5.7-4.2-8.1-6.7c-2.5-2.5-4.7-5.2-6.7-8.1
				s-3.7-6.1-5.1-9.3C2.5,70.6,1,63.4,1,56s1.5-14.6,4.3-21.4c1.4-3.3,3.1-6.4,5.1-9.3s4.2-5.7,6.7-8.1c2.5-2.5,5.2-4.7,8.1-6.7
				s6.1-3.7,9.3-5.1C41.4,2.5,48.6,1,56,1s14.6,1.5,21.4,4.3c3.3,1.4,6.4,3.1,9.3,5.1s5.7,4.2,8.1,6.7c2.5,2.5,4.7,5.2,6.7,8.1
				s3.7,6.1,5.1,9.3c2.9,6.8,4.3,14,4.3,21.4s-1.5,14.6-4.3,21.4c-1.4,3.3-3.1,6.4-5.1,9.3s-4.2,5.7-6.7,8.1
				c-2.5,2.5-5.2,4.7-8.1,6.7s-6.1,3.7-9.3,5.1C70.6,109.5,63.4,111,56,111z"/>
			<path class="st2" d="M56,2c-7.3,0-14.4,1.4-21,4.2c-3.2,1.4-6.3,3-9.2,5c-2.9,1.9-5.5,4.2-8,6.6c-2.4,2.4-4.7,5.1-6.6,8
				c-2,2.9-3.6,6-5,9.2C3.4,41.6,2,48.7,2,56s1.4,14.4,4.2,21c1.4,3.2,3,6.3,5,9.2c1.9,2.9,4.2,5.5,6.6,8c2.4,2.4,5.1,4.7,8,6.6
				c2.9,2,6,3.6,9.2,5c6.7,2.8,13.7,4.2,21,4.2s14.4-1.4,21-4.2c3.2-1.4,6.3-3,9.2-5c2.9-1.9,5.5-4.2,8-6.6c2.4-2.4,4.7-5.1,6.6-8
				c2-2.9,3.6-6,5-9.2c2.8-6.7,4.2-13.7,4.2-21s-1.4-14.4-4.2-21c-1.4-3.2-3-6.3-5-9.2c-1.9-2.9-4.2-5.5-6.6-8
				c-2.4-2.4-5.1-4.7-8-6.6c-2.9-2-6-3.6-9.2-5C70.4,3.4,63.3,2,56,2 M56,0c30.9,0,56,25.1,56,56s-25.1,56-56,56S0,86.9,0,56
				S25.1,0,56,0z"/>
		</g>
		<g class="st3">
			<path class="st4" d="M16.9,69V49.9l-4.5,2.4l-2.5-4.8l7.6-4.4h5.2V69H16.9z"/>
			<path class="st4" d="M35.4,64h8.2v5H27.4v-4.9c2.9-3,3.4-3.4,5.8-6.2c3.9-4.5,4.4-4.7,4.4-7.4v-0.7c0-1.4-0.9-1.9-3.2-1.9
				c-1.9,0-4.9,0.3-6.6,0.8L27,43.9c2.5-0.6,5.3-1,7.6-1c6.2,0,8.6,1.9,8.6,6.3v1c0,3.8,0,4.5-3.7,8.9C37.7,61.3,36.5,62.7,35.4,64z
				"/>
			<path class="st4" d="M48.2,69v-6.6H54V69H48.2z"/>
			<path class="st4" d="M65.9,58.5c-2.9-0.1-4.2-0.2-6.4-0.2V43.2h14.6v5h-8.8v5.4c1.4,0,2.1,0.1,3.6,0.2c4.6,0.3,5.8,2.5,5.8,5.7
				v2.8c0,4.6-1.7,7.1-9,7.1c-1.8,0-4.9-0.3-7.1-1l0.8-4.6c2,0.4,4.3,0.6,6.2,0.6c2.7,0,3.3-0.8,3.3-2.4v-1.1
				C68.9,59.1,68.4,58.6,65.9,58.5z"/>
			<path class="st4" d="M79.1,42.4h6V69h-6V42.4z M85.8,55.4l7.2-13h6.8l-7.5,13l8,13.6h-6.8L85.8,55.4z"/>
		</g>
	</g>
	<g class="st3">
		<path d="M62.2,214.7l-2.2-8.8c-0.3-1.3-0.7-3.2-0.8-3.4c0,0.8,0.2,5.3,0.2,7.3v4.9h-3.2v-15h5l1.9,7.4c0.4,1.6,0.8,3.6,0.8,3.6
			l0,0c0,0,0.4-2,0.8-3.6l2-7.4h4.8v15h-3.2v-4.8c0-2.1,0.2-6.4,0.3-7.3c0,0.2-0.5,2.4-0.9,3.8l-2.4,8.3H62.2z"/>
		<path d="M84.1,212.5c-0.6,0.9-2.1,2.5-5,2.5c-3.1,0-5.4-2-5.4-5.5c0-3.3,2.2-5.5,5.4-5.5c3.5,0,5.2,2.5,5.2,5.7c0,0.2,0,0.5,0,0.7
			h-7.5c0.1,1.1,0.9,2.1,2.5,2.1c1.4,0,2.2-0.8,2.6-1.5L84.1,212.5z M76.7,208.2h4.4c-0.1-1.2-0.8-2-2.1-2
			C77.7,206.2,76.8,207.1,76.7,208.2z"/>
		<path d="M96.1,212.5c-0.6,0.9-2.1,2.5-5,2.5c-3.1,0-5.4-2-5.4-5.5c0-3.3,2.2-5.5,5.4-5.5c3.5,0,5.2,2.5,5.2,5.7c0,0.2,0,0.5,0,0.7
			h-7.5c0.1,1.1,0.9,2.1,2.5,2.1c1.4,0,2.2-0.8,2.6-1.5L96.1,212.5z M88.8,208.2h4.4c-0.1-1.2-0.8-2-2.1-2
			C89.7,206.2,88.8,207.1,88.8,208.2z"/>
		<path d="M104.6,214.7c-0.4,0.1-1.2,0.2-1.9,0.2c-1.3,0-2.6-0.2-3.1-0.9c-0.4-0.5-0.4-1.1-0.4-2.2v-5.5h-2v-2.2h2v-3.6l3.2-0.6v4.2
			h2.3v2.2h-2.3v4.6c0,0.6,0.1,0.9,0.3,1.1c0.2,0.2,0.6,0.3,1.2,0.3c0.4,0,0.7,0,0.8,0L104.6,214.7L104.6,214.7z"/>
		<path d="M109.8,202.9h-3.2v-3.1h3.2V202.9z M109.8,214.7h-3.2v-10.5h3.2V214.7z"/>
		<path d="M122.5,214.7h-3.2v-5.3c0-1.6-0.1-2.7-1.6-2.7c-1.3,0-1.9,1.1-1.9,2.5v5.5h-3.2v-10.5h3.2v1.3c0.5-0.9,1.6-1.6,3.1-1.6
			c1.2,0,2.1,0.3,2.8,1c0.7,0.7,0.9,1.5,0.9,3.8v6H122.5z"/>
		<path d="M127.7,214.9c0.2,0.9,0.7,1.7,2.3,1.7c1.7,0,2.4-0.7,2.4-2.4v-0.7c-0.4,0.4-1.4,1.1-3.1,1.1c-2.9,0-4.8-2.2-4.8-5.3
			c0-2.9,2-5.3,4.8-5.3c1.4,0,2.5,0.5,3.1,1.2v-0.9h3.2v9.4c0,3.8-1.5,5.3-5.7,5.3c-3.8,0-5-1.7-5.2-3.8L127.7,214.9z M130,206.4
			c-1.4,0-2.4,1.1-2.4,2.9c0,1.8,0.9,2.9,2.4,2.9c1.4,0,2.4-1.2,2.4-2.9S131.4,206.4,130,206.4z"/>
		<path d="M145,207.4c-0.8-0.7-1.8-1.1-2.8-1.1c-0.7,0-1.4,0.2-1.4,0.8c0,0.5,0.5,0.7,1.6,0.9l1.6,0.4c1.7,0.4,3.2,1,3.2,3
			c0,2.4-2.1,3.6-4.6,3.6c-2.4,0-4.4-1.1-5.4-2.4l2-1.6c0.6,0.9,1.9,1.6,3.3,1.6c1.1,0,1.6-0.4,1.6-0.9c0-0.6-0.6-0.7-1.3-0.8
			l-1.7-0.3c-1.1-0.2-2-0.6-2.6-1.1s-0.9-1.2-0.9-2c0-2.5,2.4-3.4,4.5-3.4c2,0,3.5,0.7,4.6,1.7L145,207.4z"/>
		<path d="M161.2,210.6c-0.2-1.1-0.5-2.4-0.7-3.6l0,0c-0.2,1.1-0.5,2.5-0.7,3.6l-0.9,4h-4l-2.6-10.5h3.3l0.8,4.5
			c0.2,1.1,0.4,2.1,0.6,3.2l0,0c0.2-1,0.4-2,0.7-3.3l1.1-4.5h3.4l1.1,4.5c0.4,1.4,0.5,2.2,0.7,3.2l0,0c0.2-1.1,0.4-1.8,0.6-3.3
			l0.9-4.4h3.2l-2.8,10.5h-4L161.2,210.6z"/>
		<path d="M173.6,202.9h-3.2v-3.1h3.2V202.9z M173.6,214.7h-3.2v-10.5h3.2V214.7z"/>
		<path d="M182.8,214.7c-0.4,0.1-1.2,0.2-1.9,0.2c-1.3,0-2.6-0.2-3.1-0.9c-0.4-0.5-0.4-1.1-0.4-2.2v-5.5h-2v-2.2h2v-3.6l3.2-0.6v4.2
			h2.3v2.2h-2.3v4.6c0,0.6,0.1,0.9,0.3,1.1c0.2,0.2,0.6,0.3,1.2,0.3c0.4,0,0.7,0,0.8,0v2.4H182.8z"/>
		<path d="M194.8,214.7h-3.2v-5.3c0-1.6-0.1-2.7-1.7-2.7c-1.3,0-1.9,1.1-1.9,2.5v5.5h-3.2v-15h3.2v5.7c0.5-0.8,1.6-1.5,3.1-1.5
			c1.2,0,2.1,0.3,2.8,1s0.9,1.5,0.9,3.8L194.8,214.7L194.8,214.7z"/>
	</g>
	<g class="st3">
		<path d="M70.4,240.7h-3.2v-5.3c0-1.6,0-2.7-1.6-2.7c-1.3,0-1.8,1.1-1.8,2.5v5.5h-3.2v-10.5h3.2v1.3c0.5-0.9,1.6-1.6,3.1-1.6
			c1.6,0,2.7,0.6,3.3,1.9c0.5-0.9,1.7-1.9,3.4-1.9c1.2,0,2.1,0.3,2.7,1c0.7,0.7,0.9,1.5,0.9,3.8v5.9H74v-5.3c0-1.6,0-2.7-1.6-2.7
			c-1.3,0-1.8,1.1-1.8,2.5v5.6H70.4z"/>
		<path d="M88.5,238.1c0,0.7,0.1,0.9,0.6,0.9h0.2v1.8c-0.5,0.1-0.9,0.1-1.5,0.1c-0.9,0-1.8-0.2-2-0.9l0,0c-0.5,0.5-1.4,1-2.9,1
			c-2.3,0-3.8-1.2-3.8-3.3c0-1.1,0.5-1.9,1.3-2.4c0.6-0.4,1.3-0.6,2.6-0.8l2-0.3c0.6-0.1,0.7-0.2,0.7-0.5v-0.2
			c0-0.8-0.4-1.2-1.5-1.2s-1.7,0.5-1.7,1.5h-3c0-2.4,1.8-3.7,4.8-3.7c2.7,0,4.4,0.8,4.4,3.2v4.8H88.5z M85.5,235.9
			c-0.2,0.1-0.5,0.2-1.2,0.3l-0.7,0.2c-0.4,0.1-0.8,0.2-1,0.4c-0.3,0.2-0.4,0.5-0.4,0.9c0,0.9,0.6,1.2,1.6,1.2
			c1.1,0,1.8-0.5,1.8-1.6v-1.4H85.5z"/>
		<path d="M101.3,240.7h-3.2v-5.3c0-1.6-0.1-2.7-1.7-2.7c-1.3,0-1.9,1.1-1.9,2.5v5.5h-3.2v-10.5h3.2v1.3c0.5-0.9,1.6-1.6,3.1-1.6
			c1.2,0,2.1,0.3,2.8,1c0.7,0.7,0.9,1.5,0.9,3.8C101.3,234.7,101.3,240.7,101.3,240.7z"/>
		<path d="M112.8,238.1c0,0.7,0.1,0.9,0.6,0.9h0.2v1.8c-0.5,0.1-0.9,0.1-1.5,0.1c-0.9,0-1.8-0.2-2-0.9l0,0c-0.5,0.5-1.4,1-2.9,1
			c-2.3,0-3.8-1.2-3.8-3.3c0-1.1,0.5-1.9,1.3-2.4c0.6-0.4,1.3-0.6,2.6-0.8l2-0.3c0.6-0.1,0.7-0.2,0.7-0.5v-0.2
			c0-0.8-0.4-1.2-1.5-1.2s-1.7,0.5-1.7,1.5h-3c0-2.4,1.8-3.7,4.8-3.7c2.7,0,4.4,0.8,4.4,3.2v4.8H112.8z M109.8,235.9
			c-0.2,0.1-0.5,0.2-1.2,0.3l-0.7,0.2c-0.4,0.1-0.8,0.2-1,0.4c-0.3,0.2-0.4,0.5-0.4,0.9c0,0.9,0.6,1.2,1.6,1.2
			c1.1,0,1.8-0.5,1.8-1.6v-1.4H109.8z"/>
		<path d="M118.3,240.9c0.2,0.9,0.7,1.7,2.3,1.7c1.7,0,2.4-0.7,2.4-2.4v-0.7c-0.4,0.4-1.4,1.1-3.1,1.1c-2.9,0-4.8-2.2-4.8-5.3
			c0-2.9,2-5.3,4.8-5.3c1.4,0,2.5,0.5,3.1,1.2v-0.9h3.2v9.4c0,3.8-1.5,5.3-5.7,5.3c-3.8,0-5-1.7-5.2-3.8L118.3,240.9z M120.6,232.4
			c-1.4,0-2.4,1.1-2.4,2.9c0,1.8,0.9,2.9,2.4,2.9c1.4,0,2.4-1.2,2.4-2.9S121.9,232.4,120.6,232.4z"/>
		<path d="M138.6,238.5c-0.6,0.9-2.1,2.5-5,2.5c-3.1,0-5.4-2-5.4-5.5c0-3.3,2.2-5.5,5.4-5.5c3.5,0,5.2,2.5,5.2,5.7
			c0,0.2,0,0.5,0,0.7h-7.5c0.1,1.1,0.9,2.1,2.5,2.1c1.4,0,2.2-0.8,2.6-1.5L138.6,238.5z M131.3,234.2h4.4c-0.1-1.2-0.8-2-2.1-2
			C132.3,232.2,131.3,233.1,131.3,234.2z"/>
		<path d="M150.6,240.7h-3.2v-5.3c0-1.6,0-2.7-1.6-2.7c-1.3,0-1.8,1.1-1.8,2.5v5.5h-3.2v-10.5h3.2v1.3c0.5-0.9,1.6-1.6,3.1-1.6
			c1.6,0,2.7,0.6,3.3,1.9c0.5-0.9,1.7-1.9,3.4-1.9c1.2,0,2.1,0.3,2.7,1c0.7,0.7,0.9,1.5,0.9,3.8v5.9H154v-5.3c0-1.6,0-2.7-1.6-2.7
			c-1.3,0-1.8,1.1-1.8,2.5L150.6,240.7L150.6,240.7z"/>
		<path d="M169.6,238.5c-0.6,0.9-2.1,2.5-5,2.5c-3.1,0-5.4-2-5.4-5.5c0-3.3,2.2-5.5,5.4-5.5c3.5,0,5.2,2.5,5.2,5.7
			c0,0.2,0,0.5,0,0.7h-7.5c0.1,1.1,0.9,2.1,2.5,2.1c1.4,0,2.2-0.8,2.6-1.5L169.6,238.5z M162.3,234.2h4.4c-0.1-1.2-0.8-2-2.1-2
			C163.3,232.2,162.3,233.1,162.3,234.2z"/>
		<path d="M181.7,240.7h-3.2v-5.3c0-1.6-0.1-2.7-1.7-2.7c-1.3,0-1.9,1.1-1.9,2.5v5.5h-3.2v-10.5h3.2v1.3c0.5-0.9,1.6-1.6,3.1-1.6
			c1.2,0,2.1,0.3,2.8,1s0.9,1.5,0.9,3.8L181.7,240.7L181.7,240.7z"/>
		<path d="M190.6,240.7c-0.4,0.1-1.2,0.2-1.9,0.2c-1.3,0-2.6-0.2-3.1-0.9c-0.4-0.5-0.4-1.1-0.4-2.2v-5.5h-2v-2.2h2v-3.6l3.2-0.6v4.2
			h2.3v2.2h-2.3v4.6c0,0.6,0.1,0.9,0.3,1.1c0.2,0.2,0.6,0.3,1.2,0.3c0.4,0,0.7,0,0.8,0v2.4H190.6z"/>
	</g>
	<g class="st3">
		<path d="M57.7,264.1c-0.6,1.5-2,2.9-4.8,2.9c-3.3,0-5.5-1.9-5.5-5.5c0-3.5,2.2-5.5,5.5-5.5c2.9,0,4.4,1.6,4.9,3.3l-2.8,0.9
			c-0.3-1.1-1-1.8-2.2-1.8c-1.5,0-2.3,1.1-2.3,3.1c0,1.9,0.8,3.1,2.3,3.1c1,0,1.8-0.5,2.1-1.5L57.7,264.1z"/>
		<path d="M64.5,255.9c3.3,0,5.6,2,5.6,5.5s-2.3,5.5-5.6,5.5c-3.3,0-5.5-1.9-5.5-5.5C59,257.9,61.2,255.9,64.5,255.9z M64.5,264.5
			c1.5,0,2.3-1.1,2.3-3.1s-0.8-3.1-2.3-3.1s-2.3,1.1-2.3,3.1C62.3,263.4,63.1,264.5,64.5,264.5z"/>
		<path d="M82,266.7h-3.2v-5.3c0-1.6,0-2.7-1.6-2.7c-1.3,0-1.8,1.1-1.8,2.5v5.5h-3.2v-10.5h3.2v1.3c0.5-0.9,1.6-1.6,3.1-1.6
			c1.6,0,2.7,0.6,3.3,1.9c0.5-0.9,1.7-1.9,3.4-1.9c1.2,0,2.1,0.3,2.7,1c0.7,0.7,0.9,1.5,0.9,3.8v5.9h-3.2v-5.3c0-1.6,0-2.7-1.6-2.7
			c-1.3,0-1.8,1.1-1.8,2.5v5.6H82z"/>
		<path d="M94.4,265.7v4.9h-3.2v-14.4h3.2v1c0.5-0.6,1.6-1.2,3.1-1.2c3,0,4.9,2.2,4.9,5.5c0,3.2-2,5.5-4.9,5.5
			C96.2,266.9,95.1,266.5,94.4,265.7z M96.7,264.5c1.5,0,2.4-1.2,2.4-3.1s-0.8-3.1-2.4-3.1c-1.4,0-2.4,1.3-2.4,3.1
			C94.3,263.3,95.3,264.5,96.7,264.5z"/>
		<path d="M113.4,264.1c0,0.7,0.1,0.9,0.6,0.9h0.2v1.8c-0.5,0.1-0.9,0.1-1.5,0.1c-0.9,0-1.8-0.2-2-0.9l0,0c-0.5,0.5-1.4,1-2.9,1
			c-2.3,0-3.8-1.2-3.8-3.3c0-1.1,0.5-1.9,1.3-2.4c0.6-0.4,1.3-0.6,2.6-0.8l2-0.3c0.6-0.1,0.7-0.2,0.7-0.5v-0.2
			c0-0.8-0.4-1.2-1.5-1.2s-1.7,0.5-1.7,1.5h-3c0-2.4,1.8-3.7,4.8-3.7c2.7,0,4.4,0.8,4.4,3.2v4.8H113.4z M110.4,261.9
			c-0.2,0.1-0.5,0.2-1.2,0.3l-0.7,0.2c-0.4,0.1-0.8,0.2-1,0.4c-0.3,0.2-0.4,0.5-0.4,0.9c0,0.9,0.6,1.2,1.6,1.2
			c1.1,0,1.8-0.5,1.8-1.6v-1.4H110.4z"/>
		<path d="M126.1,266.7h-3.2v-5.3c0-1.6-0.1-2.7-1.7-2.7c-1.3,0-1.9,1.1-1.9,2.5v5.5h-3.2v-10.5h3.2v1.3c0.5-0.9,1.7-1.6,3.1-1.6
			c1.2,0,2.1,0.3,2.8,1c0.7,0.7,0.9,1.5,0.9,3.8C126.1,260.7,126.1,266.7,126.1,266.7z"/>
		<path d="M138,256.2l-3.6,11.3c-0.4,1.1-0.7,1.8-1.1,2.3c-0.5,0.6-1.3,0.9-3.1,0.9c-0.8,0-1.2,0-2-0.1v-2.5c0.4,0,0.7,0,1,0
			c0.8,0,1.7,0,1.7-0.9c0-0.4-0.2-0.8-0.3-1.3l-3.2-9.8h3.4l1.5,5.6c0.3,1,0.5,2.2,0.5,2.2l0,0c0,0,0.2-1.3,0.5-2.2l1.4-5.6h3.3
			V256.2z"/>
		<path d="M149.5,266.7c-0.4,0.1-1.2,0.2-1.9,0.2c-1.3,0-2.6-0.2-3.1-0.9c-0.4-0.5-0.4-1.1-0.4-2.2v-5.5h-2v-2.2h2v-3.6l3.2-0.6v4.2
			h2.3v2.2h-2.3v4.6c0,0.6,0.1,0.9,0.3,1.1s0.6,0.3,1.2,0.3c0.4,0,0.7,0,0.8,0v2.4H149.5z"/>
		<path d="M161.4,264.5c-0.6,0.9-2.1,2.5-5,2.5c-3.1,0-5.4-2-5.4-5.5c0-3.3,2.2-5.5,5.4-5.5c3.5,0,5.2,2.5,5.2,5.7
			c0,0.2,0,0.5,0,0.7h-7.5c0.1,1.1,0.9,2.1,2.5,2.1c1.4,0,2.2-0.8,2.6-1.5L161.4,264.5z M154.1,260.2h4.4c-0.1-1.2-0.8-2-2.1-2
			C155.1,258.2,154.1,259.1,154.1,260.2z"/>
		<path d="M172.5,264.1c0,0.7,0.1,0.9,0.6,0.9h0.2v1.8c-0.5,0.1-0.9,0.1-1.5,0.1c-0.9,0-1.8-0.2-2-0.9l0,0c-0.5,0.5-1.4,1-2.9,1
			c-2.3,0-3.8-1.2-3.8-3.3c0-1.1,0.5-1.9,1.3-2.4c0.6-0.4,1.3-0.6,2.6-0.8l2-0.3c0.6-0.1,0.7-0.2,0.7-0.5v-0.2
			c0-0.8-0.4-1.2-1.5-1.2s-1.7,0.5-1.7,1.5h-3c0-2.4,1.8-3.7,4.8-3.7c2.7,0,4.4,0.8,4.4,3.2v4.8H172.5z M169.5,261.9
			c-0.2,0.1-0.5,0.2-1.2,0.3l-0.7,0.2c-0.4,0.1-0.8,0.2-1,0.4c-0.3,0.2-0.4,0.5-0.4,0.9c0,0.9,0.6,1.2,1.6,1.2
			c1.1,0,1.8-0.5,1.8-1.6v-1.4H169.5z"/>
		<path d="M185.1,266.7h-3.2v-5.3c0-1.6,0-2.7-1.6-2.7c-1.3,0-1.8,1.1-1.8,2.5v5.5h-3.2v-10.5h3.2v1.3c0.5-0.9,1.6-1.6,3.1-1.6
			c1.6,0,2.7,0.6,3.3,1.9c0.5-0.9,1.7-1.9,3.4-1.9c1.2,0,2.1,0.3,2.7,1c0.7,0.7,0.9,1.5,0.9,3.8v5.9h-3.2v-5.3c0-1.6,0-2.7-1.6-2.7
			c-1.3,0-1.8,1.1-1.8,2.5v5.6H185.1z"/>
		<path d="M201.1,259.4c-0.8-0.7-1.8-1.1-2.8-1.1c-0.7,0-1.4,0.2-1.4,0.8c0,0.5,0.5,0.7,1.6,0.9l1.7,0.4c1.7,0.4,3.2,1,3.2,3
			c0,2.4-2.1,3.6-4.6,3.6c-2.4,0-4.4-1.1-5.4-2.4l2-1.6c0.6,0.9,1.9,1.6,3.3,1.6c1.1,0,1.6-0.4,1.6-0.9c0-0.6-0.6-0.7-1.3-0.8
			l-1.7-0.3c-1.1-0.2-2-0.6-2.6-1.1s-0.9-1.2-0.9-2c0-2.5,2.4-3.4,4.5-3.4c2,0,3.5,0.7,4.6,1.7L201.1,259.4z"/>
	</g>
	<g class="st3">
		<path d="M92.5,280.9h-3.2v-3.1h3.2V280.9z M92.5,292.7h-3.2v-10.5h3.2V292.7z"/>
		<path d="M105.1,292.7h-3.2v-5.3c0-1.6-0.1-2.7-1.7-2.7c-1.3,0-1.9,1.1-1.9,2.5v5.5h-3.2v-10.5h3.2v1.3c0.5-0.9,1.6-1.6,3.1-1.6
			c1.2,0,2.1,0.3,2.8,1c0.7,0.7,0.9,1.5,0.9,3.8C105.1,286.7,105.1,292.7,105.1,292.7z"/>
		<path d="M112.1,283.7c-0.2-0.5-0.3-1.1-0.3-1.6c0-2.6,2.1-4.6,5.5-4.6c3.3,0,5.2,1.8,5.2,4.7c0,2.8-1.8,4.5-3.7,6.1
			c-0.8,0.6-1.4,1.1-2.2,1.6h5.9v2.8h-10.7v-2.2c1.4-1,3.1-2.4,4.6-3.8c1.2-1.1,2.8-2.5,2.8-4.4c0-1.3-0.8-2.1-2.1-2.1
			c-1.5,0-2.1,1.1-2.1,2.4c0,0.5,0.1,0.9,0.2,1.4L112.1,283.7z"/>
		<path d="M130.2,292.9c-4.2,0-5.6-3.9-5.6-7.7c0-3.7,1.2-7.8,5.6-7.8c4.4,0,5.6,4,5.6,7.8C135.8,288.8,134.8,292.9,130.2,292.9z
			 M130.2,280.4c-2,0-2.3,2.7-2.3,4.8c0,2.1,0.2,4.7,2.3,4.7s2.3-2.6,2.3-4.7C132.5,283.1,132.2,280.4,130.2,280.4z"/>
		<path d="M138,283.7c-0.2-0.5-0.3-1.1-0.3-1.6c0-2.6,2.1-4.6,5.5-4.6c3.3,0,5.2,1.8,5.2,4.7c0,2.8-1.8,4.5-3.7,6.1
			c-0.8,0.6-1.4,1.1-2.2,1.6h5.9v2.8h-10.7v-2.2c1.4-1,3.1-2.4,4.6-3.8c1.2-1.1,2.8-2.5,2.8-4.4c0-1.3-0.8-2.1-2.1-2.1
			c-1.5,0-2.1,1.1-2.1,2.4c0,0.5,0.1,0.9,0.2,1.4L138,283.7z"/>
		<path d="M156.1,292.9c-4.2,0-5.6-3.9-5.6-7.7c0-3.7,1.2-7.8,5.6-7.8c4.4,0,5.6,4,5.6,7.8C161.8,288.8,160.7,292.9,156.1,292.9z
			 M156.1,280.4c-2,0-2.3,2.7-2.3,4.8c0,2.1,0.2,4.7,2.3,4.7s2.3-2.6,2.3-4.7C158.5,283.1,158.2,280.4,156.1,280.4z"/>
	</g>
</g>
</svg>
