<svg xmlns="http://www.w3.org/2000/svg" width="114" height="114" viewBox="0 0 114 114"><defs><style>.a{fill:none;stroke:#ffbf27;stroke-linecap:round;stroke-linejoin:round;stroke-width:2px;}</style></defs><g transform="translate(-608.571 -1209.282)"><circle class="a" cx="56" cy="56" r="56" transform="translate(609.571 1210.282)"/><g transform="translate(-3628.513 -1318.388)"><path class="a" d="M4281.671,2587.957a19.128,19.128,0,1,1,33.283-3.983" transform="translate(1.957 0)"/><path class="a" d="M4283.084,2600.022a2.838,2.838,0,0,1,2.391-1.2h16.739c1.328,0,8.635-7.327,9.565-8.37a63.755,63.755,0,0,0,5.978-9.565,4.784,4.784,0,0,0-4.782-1.2c-2.114.492-3.357,2.01-4.783,4.783l-5.482,2.846" transform="translate(2.935 4.277)"/><path class="a" d="M4291.824,2591.039h9.565c4.783,0,4.783-5.978,0-5.978h-6.318c-1,0-2.865-2.392-4.443-2.392h-5.978c-1.617,0-3.623,1.312-4.783,2.392l-4.782,4.782" transform="translate(1.37 4.891)"/><rect class="a" width="8.454" height="20.291" transform="translate(4268.084 2598.322) rotate(-45)"/><line class="a" x2="2.391" y2="2.391" transform="translate(4274.063 2598.322)"/><path class="a" d="M4313.411,2575.822h-7.174l-4.782-4.783h-8.37v-2.391a3.587,3.587,0,0,1,3.587-3.587h3.587l2.391-2.391h4.782" transform="translate(4.892 0.978)"/><path class="a" d="M4299.063,2584.431v-1.2l-2.392-2.391h-2.391a1.2,1.2,0,0,1-1.2-1.2v-2.392a3.587,3.587,0,0,1,3.587-3.586h4.787l4.778,4.782v2.391" transform="translate(4.892 3.13)"/><path class="a" d="M4278.084,2576.626h2.391l2.392-2.391v-1.2l2.391-2.391h2.391v-3.587a2.392,2.392,0,0,0-2.391-2.391h-3.587" transform="translate(1.957 1.37)"/><path class="a" d="M4284.671,2581.648l2.391-2.391v-1.2l-2.391-2.391h-1.2l-2.391,2.391" transform="translate(2.543 3.522)"/></g></g></svg>