<svg xmlns="http://www.w3.org/2000/svg" width="246" height="322" viewBox="0 0 246 322">
  <g id="Tile_3" data-name="Tile 3" transform="translate(1 -47.676)">
    <rect id="area" width="246" height="322" transform="translate(-1 47.676)" fill="#fff"/>
    <g id="CIRCLE" transform="translate(65.781 62.444)">
      <g id="Path_306" data-name="Path 306" fill="rgba(28,216,192,0)">
        <path d="M 56.00000381469727 110.9999694824219 C 48.57461929321289 110.9999694824219 41.37186431884766 109.5459289550781 34.59183502197266 106.67822265625 C 31.33306503295898 105.2998809814453 28.18991088867188 103.5938186645508 25.24968147277832 101.6074371337891 C 22.33712768554688 99.63973999023438 19.5982494354248 97.37995910644531 17.10912704467773 94.89085388183594 C 14.62001895904541 92.40174102783203 12.36023426055908 89.66286468505859 10.39254188537598 86.75031280517578 C 8.406157493591309 83.81006622314453 6.700111389160156 80.66690826416016 5.321773052215576 77.40815734863281 C 2.454050064086914 70.62812805175781 1.000003814697266 63.42537307739258 1.000003814697266 55.9999885559082 C 1.000003814697266 48.57460403442383 2.454050064086914 41.37184906005859 5.321773052215576 34.59181976318359 C 6.700111389160156 31.33306503295898 8.406157493591309 28.18991088867188 10.39254188537598 25.24966621398926 C 12.36023426055908 22.33711242675781 14.62001895904541 19.59823417663574 17.10912704467773 17.10912704467773 C 19.5982494354248 14.62001895904541 22.33712768554688 12.36023426055908 25.24968147277832 10.39254283905029 C 28.18991088867188 8.406157493591309 31.33306503295898 6.700096130371094 34.59183502197266 5.321757793426514 C 41.37186431884766 2.454050064086914 48.57461929321289 1.000003933906555 56.00000381469727 1.000003933906555 C 63.42538833618164 1.000003933906555 70.62814331054688 2.454050064086914 77.40817260742188 5.321757793426514 C 80.66693878173828 6.700096130371094 83.81009674072266 8.406157493591309 86.75032806396484 10.39254283905029 C 89.66287994384766 12.36023426055908 92.40175628662109 14.62001895904541 94.89088439941406 17.10912704467773 C 97.37998962402344 19.59823417663574 99.6397705078125 22.33711242675781 101.6074676513672 25.24966621398926 C 103.5938491821289 28.18991088867188 105.2998962402344 31.33306503295898 106.6782379150391 34.59181976318359 C 109.5459594726562 41.37184906005859 111 48.57460403442383 111 55.9999885559082 C 111 63.42537307739258 109.5459594726562 70.62812805175781 106.6782379150391 77.40815734863281 C 105.2998962402344 80.66690826416016 103.5938491821289 83.81006622314453 101.6074676513672 86.75031280517578 C 99.6397705078125 89.66286468505859 97.37998962402344 92.40174102783203 94.89088439941406 94.89085388183594 C 92.40175628662109 97.37995910644531 89.66287994384766 99.63973999023438 86.75032806396484 101.6074371337891 C 83.81009674072266 103.5938186645508 80.66693878173828 105.2998809814453 77.40817260742188 106.67822265625 C 70.62814331054688 109.5459289550781 63.42538833618164 110.9999694824219 56.00000381469727 110.9999694824219 Z" stroke="none"/>
        <path d="M 56.00000381469727 2.000007629394531 C 48.70917129516602 2.000007629394531 41.63748931884766 3.427474975585938 34.98138427734375 6.242774963378906 C 31.78208923339844 7.595954895019531 28.69622039794922 9.27093505859375 25.80948638916016 11.22116851806641 C 22.94965362548828 13.15322113037109 20.26033782958984 15.37212371826172 17.81623840332031 17.81623840332031 C 15.37212371826172 20.26033782958984 13.15322113037109 22.94965362548828 11.22116851806641 25.80948638916016 C 9.27093505859375 28.69620513916016 7.595954895019531 31.78208923339844 6.242767333984375 34.98136901855469 C 3.427467346191406 41.63747406005859 2.000007629394531 48.70915603637695 2.000007629394531 55.9999885559082 C 2.000007629394531 63.29082107543945 3.427467346191406 70.36250305175781 6.242767333984375 77.01860046386719 C 7.595954895019531 80.21788787841797 9.27093505859375 83.30377197265625 11.22116851806641 86.19049072265625 C 13.15322113037109 89.05032348632812 15.37212371826172 91.73963928222656 17.81623840332031 94.18373870849609 C 20.26033782958984 96.62785339355469 22.94965362548828 98.84675598144531 25.80948638916016 100.77880859375 C 28.69622039794922 102.7290344238281 31.78208923339844 104.4040222167969 34.98138427734375 105.7572021484375 C 41.63748931884766 108.5725021362305 48.70917129516602 109.9999694824219 56.00000381469727 109.9999694824219 C 63.29083633422852 109.9999694824219 70.36251831054688 108.5725021362305 77.01861572265625 105.7572021484375 C 80.21791839599609 104.4040222167969 83.30378723144531 102.7290344238281 86.19052124023438 100.77880859375 C 89.05035400390625 98.84675598144531 91.73966979980469 96.62785339355469 94.18376922607422 94.18373870849609 C 96.62788391113281 91.73963928222656 98.84678649902344 89.05032348632812 100.7788391113281 86.19049072265625 C 102.7290725708008 83.30377197265625 104.404052734375 80.21788787841797 105.7572402954102 77.01860046386719 C 108.5725402832031 70.36250305175781 110 63.29082107543945 110 55.9999885559082 C 110 48.70915603637695 108.5725402832031 41.63747406005859 105.7572402954102 34.98136901855469 C 104.404052734375 31.78208923339844 102.7290725708008 28.69620513916016 100.7788391113281 25.80948638916016 C 98.84678649902344 22.94965362548828 96.62788391113281 20.26033782958984 94.18376922607422 17.81623840332031 C 91.73966979980469 15.37212371826172 89.05035400390625 13.15322113037109 86.19052124023438 11.22116851806641 C 83.30378723144531 9.27093505859375 80.21791839599609 7.595954895019531 77.01861572265625 6.242774963378906 C 70.36251831054688 3.427474975585938 63.29083633422852 2.000007629394531 56.00000381469727 2.000007629394531 M 56.00000381469727 7.62939453125e-06 C 86.92795562744141 7.62939453125e-06 112 25.07205200195312 112 55.9999885559082 C 112 86.92791748046875 86.92795562744141 111.9999694824219 56.00000381469727 111.9999694824219 C 25.07205200195312 111.9999694824219 7.62939453125e-06 86.92791748046875 7.62939453125e-06 55.9999885559082 C 7.62939453125e-06 25.07205200195312 25.07205200195312 7.62939453125e-06 56.00000381469727 7.62939453125e-06 Z" stroke="none" fill="#ffc53c"/>
      </g>
      <path id="Path_19420" data-name="Path 19420" d="M-26.88-7.48c3,0,4.72-2.32,5.64-5.04l-3.12-1.8c-.36,1.08-1.24,2.48-2.52,2.48-1.44,0-3.6-2.48-5.56-2.48-2.76,0-4.44,1.96-5.64,5.04l3.12,1.8c.48-1.16,1.2-2.48,2.52-2.48C-31.2-9.96-29.52-7.48-26.88-7.48ZM-7.88,0V-25.84h-5.2l-7.56,4.36,2.48,4.76,4.52-2.44V0ZM14.8-19.16c0-4-2.08-7.08-8.84-7.08s-8.84,3.08-8.84,7.08V-6.68C-2.88-2.68-.8.4,5.96.4S14.8-2.68,14.8-6.68Zm-11.92.8c0-2,.56-2.84,3.08-2.84s3.08.84,3.08,2.84V-7.48c0,2-.56,2.84-3.08,2.84S2.88-5.48,2.88-7.48Zm34-.8c0-4-2.08-7.08-8.84-7.08s-8.84,3.08-8.84,7.08V-6.68c0,4,2.08,7.08,8.84,7.08s8.84-3.08,8.84-7.08Zm-11.92.8c0-2,.56-2.84,3.08-2.84s3.08.84,3.08,2.84V-7.48c0,2-.56,2.84-3.08,2.84s-3.08-.84-3.08-2.84Z" transform="translate(56 68.5)" fill="#ffbf27"/>
    </g>
    <path id="Path_19418" data-name="Path 19418" d="M20.719,5.966V3.04H10.2V18H21.225V15.052H13.5V11.818h6.512v-2.9H13.5V5.966Zm12.3,6.512c0-1.43.506-2.486,1.826-2.486,1.584,0,1.584,1.122,1.584,2.728V18h3.212V12.06c0-2.31-.264-3.036-.924-3.784a3.374,3.374,0,0,0-2.684-1.012,3.847,3.847,0,0,0-3.366,1.892,3.2,3.2,0,0,0-3.256-1.892,3.487,3.487,0,0,0-3.058,1.562v-1.3H23.183V18h3.212V12.478c0-1.43.506-2.486,1.8-2.486,1.584,0,1.606,1.122,1.606,2.728V18h3.212Zm15.422,5.786c2.926,0,4.884-2.31,4.884-5.5,0-3.3-1.892-5.5-4.884-5.5A4.219,4.219,0,0,0,45.381,8.5V7.528H42.169V21.96h3.212V17.054A3.942,3.942,0,0,0,48.439,18.264Zm-3.146-5.5c0-1.826.968-3.08,2.4-3.08,1.562,0,2.376,1.166,2.376,3.08,0,1.87-.88,3.058-2.376,3.058C46.261,15.822,45.293,14.59,45.293,12.764Zm13.4-9.724H55.479V18h3.212Zm2.156,9.768c0,3.542,2.244,5.456,5.544,5.456s5.566-1.914,5.566-5.456-2.266-5.544-5.566-5.544S60.847,9.266,60.847,12.808Zm3.256-.044c0-1.936.792-3.08,2.288-3.08s2.31,1.122,2.31,3.08c0,1.914-.836,3.058-2.31,3.058S64.1,14.7,64.1,12.764ZM80.031,7.528,78.6,13.116c-.242.946-.484,2.244-.484,2.244H78.1s-.264-1.254-.528-2.244l-1.5-5.588H72.705L75.9,17.34a4.754,4.754,0,0,1,.33,1.276c0,.9-.924.88-1.694.88-.308,0-.528,0-.968-.022V21.96a18.864,18.864,0,0,0,1.958.088c1.826,0,2.574-.33,3.1-.9a5.957,5.957,0,0,0,1.1-2.288l3.608-11.33Zm12.32,6.754a2.938,2.938,0,0,1-2.6,1.452,2.332,2.332,0,0,1-2.53-2.134h7.458a6.4,6.4,0,0,0,.022-.66c0-3.19-1.76-5.676-5.214-5.676a5.163,5.163,0,0,0-5.368,5.456,5.178,5.178,0,0,0,5.434,5.544,5.909,5.909,0,0,0,5.016-2.486Zm-2.882-4.8A2.011,2.011,0,0,1,91.6,11.532H87.225A2.191,2.191,0,0,1,89.469,9.486Zm14.894,4.8a2.938,2.938,0,0,1-2.6,1.452,2.332,2.332,0,0,1-2.53-2.134h7.458a6.4,6.4,0,0,0,.022-.66c0-3.19-1.76-5.676-5.214-5.676a5.163,5.163,0,0,0-5.368,5.456,5.178,5.178,0,0,0,5.434,5.544,5.909,5.909,0,0,0,5.016-2.486Zm-2.882-4.8a2.011,2.011,0,0,1,2.134,2.046H99.237A2.191,2.191,0,0,1,101.481,9.486ZM117.365,9a6.512,6.512,0,0,0-4.576-1.738c-2.068,0-4.466.9-4.466,3.388a2.563,2.563,0,0,0,.9,2.046,5.507,5.507,0,0,0,2.6,1.1l1.65.33c.7.132,1.342.242,1.342.836,0,.572-.55.924-1.628.924a4.2,4.2,0,0,1-3.344-1.606l-2.024,1.628a6.733,6.733,0,0,0,5.368,2.354c2.486,0,4.62-1.166,4.62-3.608,0-2-1.54-2.684-3.234-3.036l-1.65-.352c-1.078-.22-1.562-.374-1.562-.924,0-.528.638-.77,1.364-.77a4.293,4.293,0,0,1,2.838,1.144Zm11.044-1.738c-2.926,0-4.884,2.31-4.884,5.5,0,3.3,1.892,5.5,4.862,5.5a4.235,4.235,0,0,0,3.08-1.232V18h3.212V3.04h-3.212V8.474A3.861,3.861,0,0,0,128.409,7.264Zm3.146,5.5c0,1.826-.968,3.08-2.4,3.08-1.562,0-2.376-1.166-2.376-3.08,0-1.87.88-3.058,2.376-3.058C130.587,9.706,131.555,10.938,131.555,12.764Zm9-5.236h-3.234V18h3.234Zm0-4.488h-3.234V6.186h3.234Zm2.64,4.488V18H146.4V13.138a5.408,5.408,0,0,1,.154-1.408,1.922,1.922,0,0,1,2.09-1.474,4.59,4.59,0,0,1,1.034.132V7.308a2.135,2.135,0,0,0-.374-.022,3.19,3.19,0,0,0-2.948,1.672V7.528Zm15.862,6.754a2.939,2.939,0,0,1-2.6,1.452,2.332,2.332,0,0,1-2.53-2.134h7.458a6.4,6.4,0,0,0,.022-.66c0-3.19-1.76-5.676-5.214-5.676a5.163,5.163,0,0,0-5.368,5.456,5.178,5.178,0,0,0,5.434,5.544,5.909,5.909,0,0,0,5.016-2.486Zm-2.882-4.8a2.011,2.011,0,0,1,2.134,2.046h-4.378A2.191,2.191,0,0,1,156.173,9.486Zm14.3,4.8a2.077,2.077,0,0,1-2.09,1.54c-1.474,0-2.288-1.122-2.288-3.058s.792-3.08,2.288-3.08a2.124,2.124,0,0,1,2.156,1.782l2.772-.946c-.528-1.694-2.024-3.256-4.928-3.256-3.3,0-5.544,2-5.544,5.544s2.244,5.456,5.544,5.456c2.772,0,4.246-1.386,4.818-2.86Zm11.154,1.43a6.288,6.288,0,0,1-.814.044,1.6,1.6,0,0,1-1.21-.33c-.2-.2-.264-.484-.264-1.078V9.706h2.288V7.528h-2.288v-4.2l-3.212.638V7.528H174.1V9.706h2.024v5.456a3.294,3.294,0,0,0,.44,2.156c.55.726,1.87.9,3.124.9a10.578,10.578,0,0,0,1.936-.176Zm5.3-12.672h-3.212V18h3.212Zm8.932,4.488-1.43,5.588c-.242.946-.484,2.244-.484,2.244h-.022s-.264-1.254-.528-2.244l-1.5-5.588h-3.366l3.19,9.812a4.754,4.754,0,0,1,.33,1.276c0,.9-.924.88-1.694.88-.308,0-.528,0-.968-.022V21.96a18.864,18.864,0,0,0,1.958.088c1.826,0,2.574-.33,3.1-.9a5.957,5.957,0,0,0,1.1-2.288l3.608-11.33ZM58.559,35a6.512,6.512,0,0,0-4.576-1.738c-2.068,0-4.466.9-4.466,3.388a2.563,2.563,0,0,0,.9,2.046,5.507,5.507,0,0,0,2.6,1.1l1.65.33c.7.132,1.342.242,1.342.836,0,.572-.55.924-1.628.924a4.2,4.2,0,0,1-3.344-1.606L49.011,41.91a6.733,6.733,0,0,0,5.368,2.354c2.486,0,4.62-1.166,4.62-3.608,0-2-1.54-2.684-3.234-3.036l-1.65-.352c-1.078-.22-1.562-.374-1.562-.924,0-.528.638-.77,1.364-.77a4.293,4.293,0,0,1,2.838,1.144Zm2.222,4.466c0,2.31.264,3.036.924,3.784a3.424,3.424,0,0,0,2.706,1.012,3.54,3.54,0,0,0,3.1-1.562V44h3.168V33.528H67.469V39.05c0,1.43-.572,2.486-1.87,2.486-1.584,0-1.606-1.122-1.606-2.728v-5.28H60.781Zm18.81,4.8c2.926,0,4.884-2.31,4.884-5.5,0-3.3-1.892-5.5-4.884-5.5A4.219,4.219,0,0,0,76.533,34.5v-.968H73.321V47.96h3.212V43.054A3.942,3.942,0,0,0,79.591,44.264Zm-3.146-5.5c0-1.826.968-3.08,2.4-3.08,1.562,0,2.376,1.166,2.376,3.08,0,1.87-.88,3.058-2.376,3.058C77.413,41.822,76.445,40.59,76.445,38.764Zm16.368,5.5c2.926,0,4.884-2.31,4.884-5.5,0-3.3-1.892-5.5-4.884-5.5A4.219,4.219,0,0,0,89.755,34.5v-.968H86.543V47.96h3.212V43.054A3.942,3.942,0,0,0,92.813,44.264Zm-3.146-5.5c0-1.826.968-3.08,2.4-3.08,1.562,0,2.376,1.166,2.376,3.08,0,1.87-.88,3.058-2.376,3.058C90.635,41.822,89.667,40.59,89.667,38.764Zm9.526.044c0,3.542,2.244,5.456,5.544,5.456s5.566-1.914,5.566-5.456-2.266-5.544-5.566-5.544S99.193,35.266,99.193,38.808Zm3.256-.044c0-1.936.792-3.08,2.288-3.08s2.31,1.122,2.31,3.08c0,1.914-.836,3.058-2.31,3.058S102.449,40.7,102.449,38.764Zm9.922-5.236V44h3.212V39.138a5.408,5.408,0,0,1,.154-1.408,1.922,1.922,0,0,1,2.09-1.474,4.589,4.589,0,0,1,1.034.132v-3.08a2.134,2.134,0,0,0-.374-.022,3.19,3.19,0,0,0-2.948,1.672v-1.43Zm14.784,8.184a6.287,6.287,0,0,1-.814.044,1.6,1.6,0,0,1-1.21-.33c-.2-.2-.264-.484-.264-1.078V35.706h2.288V33.528h-2.288v-4.2l-3.212.638v3.564h-2.024v2.178h2.024v5.456a3.294,3.294,0,0,0,.44,2.156c.55.726,1.87.9,3.124.9a10.578,10.578,0,0,0,1.936-.176Zm5.236-8.184h-3.234V44h3.234Zm0-4.488h-3.234v3.146h3.234Zm12.628,9.02c0-2.31-.264-3.036-.924-3.784a3.524,3.524,0,0,0-2.75-1.012,3.594,3.594,0,0,0-3.146,1.562v-1.3h-3.168V44h3.212V38.478c0-1.43.572-2.486,1.914-2.486,1.584,0,1.65,1.122,1.65,2.728V44h3.212Zm2.222,6.336c.176,2.134,1.452,3.828,5.214,3.828,4.158,0,5.654-1.54,5.654-5.3V33.528H154.9v.9a4.146,4.146,0,0,0-3.08-1.166c-2.838,0-4.84,2.354-4.84,5.28,0,3.146,1.892,5.324,4.8,5.324a4.037,4.037,0,0,0,3.1-1.144v.748c0,1.628-.638,2.354-2.354,2.354-1.606,0-2.112-.726-2.288-1.65Zm7.722-5.808c0,1.738-1.012,2.9-2.4,2.9-1.5,0-2.354-1.122-2.354-2.9,0-1.738.924-2.882,2.354-2.882C153.929,35.706,154.963,36.85,154.963,38.588ZM46.492,59.528V70H49.7V65.138a5.408,5.408,0,0,1,.154-1.408,1.922,1.922,0,0,1,2.09-1.474,4.589,4.589,0,0,1,1.034.132v-3.08a2.135,2.135,0,0,0-.374-.022,3.19,3.19,0,0,0-2.948,1.672v-1.43Zm15.862,6.754a2.938,2.938,0,0,1-2.6,1.452,2.332,2.332,0,0,1-2.53-2.134h7.458a6.4,6.4,0,0,0,.022-.66c0-3.19-1.76-5.676-5.214-5.676a5.163,5.163,0,0,0-5.368,5.456,5.178,5.178,0,0,0,5.434,5.544,5.909,5.909,0,0,0,5.016-2.486Zm-2.882-4.8a2.011,2.011,0,0,1,2.134,2.046H57.228A2.191,2.191,0,0,1,59.472,61.486ZM75.356,61a6.512,6.512,0,0,0-4.576-1.738c-2.068,0-4.466.9-4.466,3.388a2.563,2.563,0,0,0,.9,2.046,5.507,5.507,0,0,0,2.6,1.1l1.65.33c.7.132,1.342.242,1.342.836,0,.572-.55.924-1.628.924a4.2,4.2,0,0,1-3.344-1.606L65.808,67.91a6.733,6.733,0,0,0,5.368,2.354c2.486,0,4.62-1.166,4.62-3.608,0-2-1.54-2.684-3.234-3.036l-1.65-.352c-1.078-.22-1.562-.374-1.562-.924,0-.528.638-.77,1.364-.77a4.293,4.293,0,0,1,2.838,1.144Zm8.6,9.262c2.926,0,4.884-2.31,4.884-5.5,0-3.3-1.892-5.5-4.884-5.5A4.219,4.219,0,0,0,80.9,60.5v-.968H77.688V73.96H80.9V69.054A3.942,3.942,0,0,0,83.958,70.264Zm-3.146-5.5c0-1.826.968-3.08,2.4-3.08,1.562,0,2.376,1.166,2.376,3.08,0,1.87-.88,3.058-2.376,3.058C81.78,67.822,80.812,66.59,80.812,64.764Zm9.526.044c0,3.542,2.244,5.456,5.544,5.456s5.566-1.914,5.566-5.456-2.266-5.544-5.566-5.544S90.338,61.266,90.338,64.808Zm3.256-.044c0-1.936.792-3.08,2.288-3.08s2.31,1.122,2.31,3.08c0,1.914-.836,3.058-2.31,3.058S93.594,66.7,93.594,64.764Zm19.91-.7c0-2.31-.264-3.036-.924-3.784a3.524,3.524,0,0,0-2.75-1.012,3.594,3.594,0,0,0-3.146,1.562v-1.3h-3.168V70h3.212V64.478c0-1.43.572-2.486,1.914-2.486,1.584,0,1.65,1.122,1.65,2.728V70H113.5ZM124.68,61a6.512,6.512,0,0,0-4.576-1.738c-2.068,0-4.466.9-4.466,3.388a2.563,2.563,0,0,0,.9,2.046,5.507,5.507,0,0,0,2.6,1.1l1.65.33c.7.132,1.342.242,1.342.836,0,.572-.55.924-1.628.924a4.2,4.2,0,0,1-3.344-1.606l-2.024,1.628a6.733,6.733,0,0,0,5.368,2.354c2.486,0,4.62-1.166,4.62-3.608,0-2-1.54-2.684-3.234-3.036l-1.65-.352c-1.078-.22-1.562-.374-1.562-.924,0-.528.638-.77,1.364-.77a4.293,4.293,0,0,1,2.838,1.144Zm5.566-1.474h-3.234V70h3.234Zm0-4.488h-3.234v3.146h3.234Zm8.91,15.224c2.926,0,4.884-2.31,4.884-5.5,0-3.3-1.892-5.5-4.884-5.5A4.219,4.219,0,0,0,136.1,60.5V55.04h-3.212V70H136.1v-.946A3.942,3.942,0,0,0,139.156,70.264Zm-3.146-5.5c0-1.826.968-3.08,2.4-3.08,1.562,0,2.376,1.166,2.376,3.08,0,1.87-.88,3.058-2.376,3.058C136.978,67.822,136.01,66.59,136.01,64.764Zm13.4-9.724H146.2V70h3.212Zm10.384,11.242a2.938,2.938,0,0,1-2.6,1.452,2.332,2.332,0,0,1-2.53-2.134h7.458a6.4,6.4,0,0,0,.022-.66c0-3.19-1.76-5.676-5.214-5.676a5.163,5.163,0,0,0-5.368,5.456A5.178,5.178,0,0,0,157,70.264a5.909,5.909,0,0,0,5.016-2.486Zm-2.882-4.8a2.011,2.011,0,0,1,2.134,2.046h-4.378A2.191,2.191,0,0,1,156.91,61.486ZM11.094,85.528H7.86V96h3.234Zm0-4.488H7.86v3.146h3.234Zm12.628,9.02c0-2.31-.264-3.036-.924-3.784a3.524,3.524,0,0,0-2.75-1.012A3.594,3.594,0,0,0,16.9,86.826v-1.3H13.734V96h3.212V90.478c0-1.43.572-2.486,1.914-2.486,1.584,0,1.65,1.122,1.65,2.728V96h3.212Zm8.6-4.532L30.938,90.72c-.308,1.166-.55,2.4-.55,2.4h-.022s-.264-1.232-.572-2.332l-1.43-5.258H25L28.386,96h3.828l3.432-10.472Zm12.3,6.754a2.938,2.938,0,0,1-2.6,1.452A2.332,2.332,0,0,1,39.5,91.6h7.458a6.4,6.4,0,0,0,.022-.66c0-3.19-1.76-5.676-5.214-5.676a5.5,5.5,0,0,0,.066,11,5.909,5.909,0,0,0,5.016-2.486Zm-2.882-4.8a2.011,2.011,0,0,1,2.134,2.046H39.5A2.191,2.191,0,0,1,41.74,87.486ZM57.624,87a6.512,6.512,0,0,0-4.576-1.738c-2.068,0-4.466.9-4.466,3.388a2.563,2.563,0,0,0,.9,2.046,5.507,5.507,0,0,0,2.6,1.1l1.65.33c.7.132,1.342.242,1.342.836,0,.572-.55.924-1.628.924A4.2,4.2,0,0,1,50.1,92.282L48.076,93.91a6.733,6.733,0,0,0,5.368,2.354c2.486,0,4.62-1.166,4.62-3.608,0-2-1.54-2.684-3.234-3.036l-1.65-.352c-1.078-.22-1.562-.374-1.562-.924,0-.528.638-.77,1.364-.77a4.293,4.293,0,0,1,2.838,1.144Zm8.69,6.71a6.287,6.287,0,0,1-.814.044,1.6,1.6,0,0,1-1.21-.33c-.2-.2-.264-.484-.264-1.078V87.706h2.288V85.528H64.026v-4.2l-3.212.638v3.564H58.79v2.178h2.024v5.456a3.294,3.294,0,0,0,.44,2.156c.55.726,1.87.9,3.124.9a10.578,10.578,0,0,0,1.936-.176Zm5.236-8.184H68.316V96H71.55Zm0-4.488H68.316v3.146H71.55Zm12.628,9.02c0-2.31-.264-3.036-.924-3.784a3.524,3.524,0,0,0-2.75-1.012,3.594,3.594,0,0,0-3.146,1.562v-1.3H74.19V96H77.4V90.478c0-1.43.572-2.486,1.914-2.486,1.584,0,1.65,1.122,1.65,2.728V96h3.212ZM86.4,96.4c.176,2.134,1.452,3.828,5.214,3.828,4.158,0,5.654-1.54,5.654-5.3V85.528H94.056v.9a4.146,4.146,0,0,0-3.08-1.166c-2.838,0-4.84,2.354-4.84,5.28,0,3.146,1.892,5.324,4.8,5.324a4.037,4.037,0,0,0,3.1-1.144v.748c0,1.628-.638,2.354-2.354,2.354-1.606,0-2.112-.726-2.288-1.65Zm7.722-5.808c0,1.738-1.012,2.9-2.4,2.9-1.5,0-2.354-1.122-2.354-2.9,0-1.738.924-2.882,2.354-2.882C93.088,87.706,94.122,88.85,94.122,90.588Zm13.4-5.06h-3.234V96h3.234Zm0-4.488h-3.234v3.146h3.234Zm12.628,9.02c0-2.31-.264-3.036-.924-3.784a3.524,3.524,0,0,0-2.75-1.012,3.594,3.594,0,0,0-3.146,1.562v-1.3H110.16V96h3.212V90.478c0-1.43.572-2.486,1.914-2.486,1.584,0,1.65,1.122,1.65,2.728V96h3.212Zm5.764-4.532h-3.234V96h3.234Zm0-4.488h-3.234v3.146h3.234Zm9.13,12.672a6.287,6.287,0,0,1-.814.044,1.6,1.6,0,0,1-1.21-.33c-.2-.2-.264-.484-.264-1.078V87.706h2.288V85.528h-2.288v-4.2l-3.212.638v3.564h-2.024v2.178h2.024v5.456a3.294,3.294,0,0,0,.44,2.156c.55.726,1.87.9,3.124.9a10.578,10.578,0,0,0,1.936-.176Zm5.236-8.184h-3.234V96h3.234Zm0-4.488h-3.234v3.146h3.234Zm11.616,7.48c0-2.376-1.694-3.212-4.378-3.212-3.014,0-4.884,1.276-4.84,3.7l2.97.022c0-1.056.616-1.518,1.738-1.518,1.1,0,1.54.44,1.54,1.232v.176c0,.33-.088.4-.66.484l-2.024.33a6.972,6.972,0,0,0-2.574.792,2.593,2.593,0,0,0-1.32,2.4c0,2.134,1.474,3.344,3.784,3.344a3.885,3.885,0,0,0,2.948-.968h.022c.22.77,1.078.946,2,.946a7.723,7.723,0,0,0,1.5-.132V94.262h-.154c-.462,0-.55-.22-.55-.88ZM148.9,92.59c0,1.1-.748,1.584-1.8,1.584-.924,0-1.562-.374-1.562-1.232a.938.938,0,0,1,.44-.858,3,3,0,0,1,1.034-.352l.726-.154a7.227,7.227,0,0,0,1.166-.33Zm12.144,1.122a6.287,6.287,0,0,1-.814.044,1.6,1.6,0,0,1-1.21-.33c-.2-.2-.264-.484-.264-1.078V87.706h2.288V85.528h-2.288v-4.2l-3.212.638v3.564h-2.024v2.178h2.024v5.456a3.294,3.294,0,0,0,.44,2.156c.55.726,1.87.9,3.124.9a10.578,10.578,0,0,0,1.936-.176Zm5.236-8.184h-3.234V96h3.234Zm0-4.488h-3.234v3.146h3.234Zm8.866,4.488-1.386,5.192c-.308,1.166-.55,2.4-.55,2.4h-.022s-.264-1.232-.572-2.332l-1.43-5.258h-3.366L171.21,96h3.828l3.432-10.472Zm12.3,6.754a2.938,2.938,0,0,1-2.6,1.452,2.332,2.332,0,0,1-2.53-2.134h7.458a6.4,6.4,0,0,0,.022-.66c0-3.19-1.76-5.676-5.214-5.676a5.5,5.5,0,0,0,.066,11,5.909,5.909,0,0,0,5.016-2.486Zm-2.882-4.8a2.011,2.011,0,0,1,2.134,2.046H182.32A2.191,2.191,0,0,1,184.564,87.486ZM200.448,87a6.512,6.512,0,0,0-4.576-1.738c-2.068,0-4.466.9-4.466,3.388a2.563,2.563,0,0,0,.9,2.046,5.507,5.507,0,0,0,2.6,1.1l1.65.33c.7.132,1.342.242,1.342.836,0,.572-.55.924-1.628.924a4.2,4.2,0,0,1-3.344-1.606L190.9,93.91a6.733,6.733,0,0,0,5.368,2.354c2.486,0,4.62-1.166,4.62-3.608,0-2-1.54-2.684-3.234-3.036L196,89.268c-1.078-.22-1.562-.374-1.562-.924,0-.528.638-.77,1.364-.77a4.293,4.293,0,0,1,2.838,1.144Z" transform="translate(18 195.676)"/>
  </g>
</svg>
