<svg height="21" viewBox="0 0 35 21" width="35" xmlns="http://www.w3.org/2000/svg"><g fill="#fff" fill-rule="evenodd"><path d="m13.5 8.68965517h-3-1.5v-1.44827586-5.79310345c0-.79655172-.675-1.44827586-1.5-1.44827586h-3c-.825 0-1.77375.59524138-2.10975 1.32372414l-1.7805 6.04220689c-.336.72848276-.60975 1.97544828-.60975 2.77199997v9.4137931c0 .7965518.675 1.4482759 1.5 1.4482759h12c.825 0 1.5-.6517241 1.5-1.4482759v-9.4137931c0-.79655169-.675-1.44827583-1.5-1.44827583" transform="matrix(-1 0 0 -1 15 21)"/><path d="m33.5 8.68965517h-3-1.5v-1.44827586-5.79310345c0-.79655172-.675-1.44827586-1.5-1.44827586h-3c-.825 0-1.77375.59524138-2.10975 1.32372414l-1.7805 6.04220689c-.336.72848276-.60975 1.97544828-.60975 2.77199997v9.4137931c0 .7965518.675 1.4482759 1.5 1.4482759h12c.825 0 1.5-.6517241 1.5-1.4482759v-9.4137931c0-.79655169-.675-1.44827583-1.5-1.44827583" transform="matrix(-1 0 0 -1 55 21)"/></g></svg>